<svg xmlns="http://www.w3.org/2000/svg" version="1.1" xmlns:xlink="http://www.w3.org/1999/xlink" xmlns:svgjs="http://svgjs.com/svgjs" width="1920" height="1080" preserveAspectRatio="none" viewBox="0 0 1920 1080"><g mask="url(&quot;#SvgjsMask3978&quot;)" fill="none"><rect width="1920" height="1080" x="0" y="0" fill="url(#SvgjsLinearGradient3979)"></rect><path d="M45.96 -48.73L97.92 -18.73L97.92 41.27L45.96 71.27L-6 41.27L-6 -18.73zM201.85 941.27L253.81 971.27L253.81 1031.27L201.85 1061.27L149.89 1031.27L149.89 971.27zM253.81 311.27L305.77 341.27L305.77 401.27L253.81 431.27L201.85 401.27L201.85 341.27zM253.81 1031.27L305.77 1061.27L305.77 1121.27L253.81 1151.27L201.85 1121.27L201.85 1061.27zM357.74 671.27L409.7 701.27L409.7 761.27L357.74 791.27L305.77 761.27L305.77 701.27zM357.74 851.27L409.7 881.27L409.7 941.27L357.74 971.27L305.77 941.27L305.77 881.27zM513.63 221.27L565.59 251.27L565.59 311.27L513.63 341.27L461.66 311.27L461.66 251.27zM461.66 311.27L513.63 341.27L513.63 401.27L461.66 431.27L409.7 401.27L409.7 341.27zM565.59 311.27L617.55 341.27L617.55 401.27L565.59 431.27L513.63 401.27L513.63 341.27zM617.55 941.27L669.52 971.27L669.52 1031.27L617.55 1061.27L565.59 1031.27L565.59 971.27zM565.59 1031.27L617.55 1061.27L617.55 1121.27L565.59 1151.27L513.63 1121.27L513.63 1061.27zM669.52 491.27L721.48 521.27L721.48 581.27L669.52 611.27L617.55 581.27L617.55 521.27zM825.4 401.27L877.37 431.27L877.37 491.27L825.4 521.27L773.44 491.27L773.44 431.27zM773.44 1031.27L825.4 1061.27L825.4 1121.27L773.44 1151.27L721.48 1121.27L721.48 1061.27zM877.37 -48.73L929.33 -18.73L929.33 41.27L877.37 71.27L825.41 41.27L825.41 -18.73zM929.33 761.27L981.29 791.27L981.29 851.27L929.33 881.27L877.37 851.27L877.37 791.27zM1033.26 41.27L1085.22 71.27L1085.22 131.27L1033.26 161.27L981.29 131.27L981.29 71.27zM1033.26 941.27L1085.22 971.27L1085.22 1031.27L1033.26 1061.27L981.29 1031.27L981.29 971.27zM981.29 1031.27L1033.26 1061.27L1033.26 1121.27L981.29 1151.27L929.33 1121.27L929.33 1061.27zM1085.22 131.27L1137.18 161.27L1137.18 221.27L1085.22 251.27L1033.26 221.27L1033.26 161.27zM1137.18 941.27L1189.15 971.27L1189.15 1031.27L1137.18 1061.27L1085.22 1031.27L1085.22 971.27zM1241.11 581.27L1293.07 611.27L1293.07 671.27L1241.11 701.27L1189.15 671.27L1189.15 611.27zM1345.04 581.27L1397 611.27L1397 671.27L1345.04 701.27L1293.07 671.27L1293.07 611.27zM1345.04 941.27L1397 971.27L1397 1031.27L1345.04 1061.27L1293.07 1031.27L1293.07 971.27zM1448.96 41.27L1500.92 71.27L1500.92 131.27L1448.96 161.27L1397 131.27L1397 71.27zM1397 491.27L1448.96 521.27L1448.96 581.27L1397 611.27L1345.04 581.27L1345.04 521.27zM1397 851.27L1448.96 881.27L1448.96 941.27L1397 971.27L1345.04 941.27L1345.04 881.27zM1500.92 -48.73L1552.89 -18.73L1552.89 41.27L1500.92 71.27L1448.96 41.27L1448.96 -18.73zM1604.85 491.27L1656.81 521.27L1656.81 581.27L1604.85 611.27L1552.89 581.27L1552.89 521.27zM1760.74 221.27L1812.7 251.27L1812.7 311.27L1760.74 341.27L1708.78 311.27L1708.78 251.27zM1760.74 581.27L1812.7 611.27L1812.7 671.27L1760.74 701.27L1708.78 671.27L1708.78 611.27zM1708.78 671.27L1760.74 701.27L1760.74 761.27L1708.78 791.27L1656.81 761.27L1656.81 701.27zM1812.7 671.27L1864.66 701.27L1864.66 761.27L1812.7 791.27L1760.74 761.27L1760.74 701.27zM1864.66 941.27L1916.63 971.27L1916.63 1031.27L1864.66 1061.27L1812.7 1031.27L1812.7 971.27zM1916.63 851.27L1968.59 881.27L1968.59 941.27L1916.63 971.27L1864.67 941.27L1864.67 881.27z" stroke="rgba(9, 48, 9, 0.19)" stroke-width="2"></path><path d="M39.96 -48.73 a6 6 0 1 0 12 0 a6 6 0 1 0 -12 0zM91.92 -18.73 a6 6 0 1 0 12 0 a6 6 0 1 0 -12 0zM91.92 41.27 a6 6 0 1 0 12 0 a6 6 0 1 0 -12 0zM39.96 71.27 a6 6 0 1 0 12 0 a6 6 0 1 0 -12 0zM-12 41.27 a6 6 0 1 0 12 0 a6 6 0 1 0 -12 0zM-12 -18.73 a6 6 0 1 0 12 0 a6 6 0 1 0 -12 0zM195.85 941.27 a6 6 0 1 0 12 0 a6 6 0 1 0 -12 0zM247.81 971.27 a6 6 0 1 0 12 0 a6 6 0 1 0 -12 0zM247.81 1031.27 a6 6 0 1 0 12 0 a6 6 0 1 0 -12 0zM195.85 1061.27 a6 6 0 1 0 12 0 a6 6 0 1 0 -12 0zM143.89 1031.27 a6 6 0 1 0 12 0 a6 6 0 1 0 -12 0zM143.89 971.27 a6 6 0 1 0 12 0 a6 6 0 1 0 -12 0zM247.81 311.27 a6 6 0 1 0 12 0 a6 6 0 1 0 -12 0zM299.77 341.27 a6 6 0 1 0 12 0 a6 6 0 1 0 -12 0zM299.77 401.27 a6 6 0 1 0 12 0 a6 6 0 1 0 -12 0zM247.81 431.27 a6 6 0 1 0 12 0 a6 6 0 1 0 -12 0zM195.85 401.27 a6 6 0 1 0 12 0 a6 6 0 1 0 -12 0zM195.85 341.27 a6 6 0 1 0 12 0 a6 6 0 1 0 -12 0zM299.77 1061.27 a6 6 0 1 0 12 0 a6 6 0 1 0 -12 0zM299.77 1121.27 a6 6 0 1 0 12 0 a6 6 0 1 0 -12 0zM247.81 1151.27 a6 6 0 1 0 12 0 a6 6 0 1 0 -12 0zM195.85 1121.27 a6 6 0 1 0 12 0 a6 6 0 1 0 -12 0zM351.74 671.27 a6 6 0 1 0 12 0 a6 6 0 1 0 -12 0zM403.7 701.27 a6 6 0 1 0 12 0 a6 6 0 1 0 -12 0zM403.7 761.27 a6 6 0 1 0 12 0 a6 6 0 1 0 -12 0zM351.74 791.27 a6 6 0 1 0 12 0 a6 6 0 1 0 -12 0zM299.77 761.27 a6 6 0 1 0 12 0 a6 6 0 1 0 -12 0zM299.77 701.27 a6 6 0 1 0 12 0 a6 6 0 1 0 -12 0zM351.74 851.27 a6 6 0 1 0 12 0 a6 6 0 1 0 -12 0zM403.7 881.27 a6 6 0 1 0 12 0 a6 6 0 1 0 -12 0zM403.7 941.27 a6 6 0 1 0 12 0 a6 6 0 1 0 -12 0zM351.74 971.27 a6 6 0 1 0 12 0 a6 6 0 1 0 -12 0zM299.77 941.27 a6 6 0 1 0 12 0 a6 6 0 1 0 -12 0zM299.77 881.27 a6 6 0 1 0 12 0 a6 6 0 1 0 -12 0zM507.63 221.27 a6 6 0 1 0 12 0 a6 6 0 1 0 -12 0zM559.59 251.27 a6 6 0 1 0 12 0 a6 6 0 1 0 -12 0zM559.59 311.27 a6 6 0 1 0 12 0 a6 6 0 1 0 -12 0zM507.63 341.27 a6 6 0 1 0 12 0 a6 6 0 1 0 -12 0zM455.66 311.27 a6 6 0 1 0 12 0 a6 6 0 1 0 -12 0zM455.66 251.27 a6 6 0 1 0 12 0 a6 6 0 1 0 -12 0zM507.63 401.27 a6 6 0 1 0 12 0 a6 6 0 1 0 -12 0zM455.66 431.27 a6 6 0 1 0 12 0 a6 6 0 1 0 -12 0zM403.7 401.27 a6 6 0 1 0 12 0 a6 6 0 1 0 -12 0zM403.7 341.27 a6 6 0 1 0 12 0 a6 6 0 1 0 -12 0zM611.55 341.27 a6 6 0 1 0 12 0 a6 6 0 1 0 -12 0zM611.55 401.27 a6 6 0 1 0 12 0 a6 6 0 1 0 -12 0zM559.59 431.27 a6 6 0 1 0 12 0 a6 6 0 1 0 -12 0zM611.55 941.27 a6 6 0 1 0 12 0 a6 6 0 1 0 -12 0zM663.52 971.27 a6 6 0 1 0 12 0 a6 6 0 1 0 -12 0zM663.52 1031.27 a6 6 0 1 0 12 0 a6 6 0 1 0 -12 0zM611.55 1061.27 a6 6 0 1 0 12 0 a6 6 0 1 0 -12 0zM559.59 1031.27 a6 6 0 1 0 12 0 a6 6 0 1 0 -12 0zM559.59 971.27 a6 6 0 1 0 12 0 a6 6 0 1 0 -12 0zM611.55 1121.27 a6 6 0 1 0 12 0 a6 6 0 1 0 -12 0zM559.59 1151.27 a6 6 0 1 0 12 0 a6 6 0 1 0 -12 0zM507.63 1121.27 a6 6 0 1 0 12 0 a6 6 0 1 0 -12 0zM507.63 1061.27 a6 6 0 1 0 12 0 a6 6 0 1 0 -12 0zM663.52 491.27 a6 6 0 1 0 12 0 a6 6 0 1 0 -12 0zM715.48 521.27 a6 6 0 1 0 12 0 a6 6 0 1 0 -12 0zM715.48 581.27 a6 6 0 1 0 12 0 a6 6 0 1 0 -12 0zM663.52 611.27 a6 6 0 1 0 12 0 a6 6 0 1 0 -12 0zM611.55 581.27 a6 6 0 1 0 12 0 a6 6 0 1 0 -12 0zM611.55 521.27 a6 6 0 1 0 12 0 a6 6 0 1 0 -12 0zM819.4 401.27 a6 6 0 1 0 12 0 a6 6 0 1 0 -12 0zM871.37 431.27 a6 6 0 1 0 12 0 a6 6 0 1 0 -12 0zM871.37 491.27 a6 6 0 1 0 12 0 a6 6 0 1 0 -12 0zM819.4 521.27 a6 6 0 1 0 12 0 a6 6 0 1 0 -12 0zM767.44 491.27 a6 6 0 1 0 12 0 a6 6 0 1 0 -12 0zM767.44 431.27 a6 6 0 1 0 12 0 a6 6 0 1 0 -12 0zM767.44 1031.27 a6 6 0 1 0 12 0 a6 6 0 1 0 -12 0zM819.4 1061.27 a6 6 0 1 0 12 0 a6 6 0 1 0 -12 0zM819.4 1121.27 a6 6 0 1 0 12 0 a6 6 0 1 0 -12 0zM767.44 1151.27 a6 6 0 1 0 12 0 a6 6 0 1 0 -12 0zM715.48 1121.27 a6 6 0 1 0 12 0 a6 6 0 1 0 -12 0zM715.48 1061.27 a6 6 0 1 0 12 0 a6 6 0 1 0 -12 0zM871.37 -48.73 a6 6 0 1 0 12 0 a6 6 0 1 0 -12 0zM923.33 -18.73 a6 6 0 1 0 12 0 a6 6 0 1 0 -12 0zM923.33 41.27 a6 6 0 1 0 12 0 a6 6 0 1 0 -12 0zM871.37 71.27 a6 6 0 1 0 12 0 a6 6 0 1 0 -12 0zM819.41 41.27 a6 6 0 1 0 12 0 a6 6 0 1 0 -12 0zM819.41 -18.73 a6 6 0 1 0 12 0 a6 6 0 1 0 -12 0zM923.33 761.27 a6 6 0 1 0 12 0 a6 6 0 1 0 -12 0zM975.29 791.27 a6 6 0 1 0 12 0 a6 6 0 1 0 -12 0zM975.29 851.27 a6 6 0 1 0 12 0 a6 6 0 1 0 -12 0zM923.33 881.27 a6 6 0 1 0 12 0 a6 6 0 1 0 -12 0zM871.37 851.27 a6 6 0 1 0 12 0 a6 6 0 1 0 -12 0zM871.37 791.27 a6 6 0 1 0 12 0 a6 6 0 1 0 -12 0zM1027.26 41.27 a6 6 0 1 0 12 0 a6 6 0 1 0 -12 0zM1079.22 71.27 a6 6 0 1 0 12 0 a6 6 0 1 0 -12 0zM1079.22 131.27 a6 6 0 1 0 12 0 a6 6 0 1 0 -12 0zM1027.26 161.27 a6 6 0 1 0 12 0 a6 6 0 1 0 -12 0zM975.29 131.27 a6 6 0 1 0 12 0 a6 6 0 1 0 -12 0zM975.29 71.27 a6 6 0 1 0 12 0 a6 6 0 1 0 -12 0zM1027.26 941.27 a6 6 0 1 0 12 0 a6 6 0 1 0 -12 0zM1079.22 971.27 a6 6 0 1 0 12 0 a6 6 0 1 0 -12 0zM1079.22 1031.27 a6 6 0 1 0 12 0 a6 6 0 1 0 -12 0zM1027.26 1061.27 a6 6 0 1 0 12 0 a6 6 0 1 0 -12 0zM975.29 1031.27 a6 6 0 1 0 12 0 a6 6 0 1 0 -12 0zM975.29 971.27 a6 6 0 1 0 12 0 a6 6 0 1 0 -12 0zM1027.26 1121.27 a6 6 0 1 0 12 0 a6 6 0 1 0 -12 0zM975.29 1151.27 a6 6 0 1 0 12 0 a6 6 0 1 0 -12 0zM923.33 1121.27 a6 6 0 1 0 12 0 a6 6 0 1 0 -12 0zM923.33 1061.27 a6 6 0 1 0 12 0 a6 6 0 1 0 -12 0zM1131.18 161.27 a6 6 0 1 0 12 0 a6 6 0 1 0 -12 0zM1131.18 221.27 a6 6 0 1 0 12 0 a6 6 0 1 0 -12 0zM1079.22 251.27 a6 6 0 1 0 12 0 a6 6 0 1 0 -12 0zM1027.26 221.27 a6 6 0 1 0 12 0 a6 6 0 1 0 -12 0zM1131.18 941.27 a6 6 0 1 0 12 0 a6 6 0 1 0 -12 0zM1183.15 971.27 a6 6 0 1 0 12 0 a6 6 0 1 0 -12 0zM1183.15 1031.27 a6 6 0 1 0 12 0 a6 6 0 1 0 -12 0zM1131.18 1061.27 a6 6 0 1 0 12 0 a6 6 0 1 0 -12 0zM1235.11 581.27 a6 6 0 1 0 12 0 a6 6 0 1 0 -12 0zM1287.07 611.27 a6 6 0 1 0 12 0 a6 6 0 1 0 -12 0zM1287.07 671.27 a6 6 0 1 0 12 0 a6 6 0 1 0 -12 0zM1235.11 701.27 a6 6 0 1 0 12 0 a6 6 0 1 0 -12 0zM1183.15 671.27 a6 6 0 1 0 12 0 a6 6 0 1 0 -12 0zM1183.15 611.27 a6 6 0 1 0 12 0 a6 6 0 1 0 -12 0zM1339.04 581.27 a6 6 0 1 0 12 0 a6 6 0 1 0 -12 0zM1391 611.27 a6 6 0 1 0 12 0 a6 6 0 1 0 -12 0zM1391 671.27 a6 6 0 1 0 12 0 a6 6 0 1 0 -12 0zM1339.04 701.27 a6 6 0 1 0 12 0 a6 6 0 1 0 -12 0zM1339.04 941.27 a6 6 0 1 0 12 0 a6 6 0 1 0 -12 0zM1391 971.27 a6 6 0 1 0 12 0 a6 6 0 1 0 -12 0zM1391 1031.27 a6 6 0 1 0 12 0 a6 6 0 1 0 -12 0zM1339.04 1061.27 a6 6 0 1 0 12 0 a6 6 0 1 0 -12 0zM1287.07 1031.27 a6 6 0 1 0 12 0 a6 6 0 1 0 -12 0zM1287.07 971.27 a6 6 0 1 0 12 0 a6 6 0 1 0 -12 0zM1442.96 41.27 a6 6 0 1 0 12 0 a6 6 0 1 0 -12 0zM1494.92 71.27 a6 6 0 1 0 12 0 a6 6 0 1 0 -12 0zM1494.92 131.27 a6 6 0 1 0 12 0 a6 6 0 1 0 -12 0zM1442.96 161.27 a6 6 0 1 0 12 0 a6 6 0 1 0 -12 0zM1391 131.27 a6 6 0 1 0 12 0 a6 6 0 1 0 -12 0zM1391 71.27 a6 6 0 1 0 12 0 a6 6 0 1 0 -12 0zM1391 491.27 a6 6 0 1 0 12 0 a6 6 0 1 0 -12 0zM1442.96 521.27 a6 6 0 1 0 12 0 a6 6 0 1 0 -12 0zM1442.96 581.27 a6 6 0 1 0 12 0 a6 6 0 1 0 -12 0zM1339.04 521.27 a6 6 0 1 0 12 0 a6 6 0 1 0 -12 0zM1391 851.27 a6 6 0 1 0 12 0 a6 6 0 1 0 -12 0zM1442.96 881.27 a6 6 0 1 0 12 0 a6 6 0 1 0 -12 0zM1442.96 941.27 a6 6 0 1 0 12 0 a6 6 0 1 0 -12 0zM1339.04 881.27 a6 6 0 1 0 12 0 a6 6 0 1 0 -12 0zM1494.92 -48.73 a6 6 0 1 0 12 0 a6 6 0 1 0 -12 0zM1546.89 -18.73 a6 6 0 1 0 12 0 a6 6 0 1 0 -12 0zM1546.89 41.27 a6 6 0 1 0 12 0 a6 6 0 1 0 -12 0zM1442.96 -18.73 a6 6 0 1 0 12 0 a6 6 0 1 0 -12 0zM1598.85 491.27 a6 6 0 1 0 12 0 a6 6 0 1 0 -12 0zM1650.81 521.27 a6 6 0 1 0 12 0 a6 6 0 1 0 -12 0zM1650.81 581.27 a6 6 0 1 0 12 0 a6 6 0 1 0 -12 0zM1598.85 611.27 a6 6 0 1 0 12 0 a6 6 0 1 0 -12 0zM1546.89 581.27 a6 6 0 1 0 12 0 a6 6 0 1 0 -12 0zM1546.89 521.27 a6 6 0 1 0 12 0 a6 6 0 1 0 -12 0zM1754.74 221.27 a6 6 0 1 0 12 0 a6 6 0 1 0 -12 0zM1806.7 251.27 a6 6 0 1 0 12 0 a6 6 0 1 0 -12 0zM1806.7 311.27 a6 6 0 1 0 12 0 a6 6 0 1 0 -12 0zM1754.74 341.27 a6 6 0 1 0 12 0 a6 6 0 1 0 -12 0zM1702.78 311.27 a6 6 0 1 0 12 0 a6 6 0 1 0 -12 0zM1702.78 251.27 a6 6 0 1 0 12 0 a6 6 0 1 0 -12 0zM1754.74 581.27 a6 6 0 1 0 12 0 a6 6 0 1 0 -12 0zM1806.7 611.27 a6 6 0 1 0 12 0 a6 6 0 1 0 -12 0zM1806.7 671.27 a6 6 0 1 0 12 0 a6 6 0 1 0 -12 0zM1754.74 701.27 a6 6 0 1 0 12 0 a6 6 0 1 0 -12 0zM1702.78 671.27 a6 6 0 1 0 12 0 a6 6 0 1 0 -12 0zM1702.78 611.27 a6 6 0 1 0 12 0 a6 6 0 1 0 -12 0zM1754.74 761.27 a6 6 0 1 0 12 0 a6 6 0 1 0 -12 0zM1702.78 791.27 a6 6 0 1 0 12 0 a6 6 0 1 0 -12 0zM1650.81 761.27 a6 6 0 1 0 12 0 a6 6 0 1 0 -12 0zM1650.81 701.27 a6 6 0 1 0 12 0 a6 6 0 1 0 -12 0zM1858.66 701.27 a6 6 0 1 0 12 0 a6 6 0 1 0 -12 0zM1858.66 761.27 a6 6 0 1 0 12 0 a6 6 0 1 0 -12 0zM1806.7 791.27 a6 6 0 1 0 12 0 a6 6 0 1 0 -12 0zM1858.66 941.27 a6 6 0 1 0 12 0 a6 6 0 1 0 -12 0zM1910.63 971.27 a6 6 0 1 0 12 0 a6 6 0 1 0 -12 0zM1910.63 1031.27 a6 6 0 1 0 12 0 a6 6 0 1 0 -12 0zM1858.66 1061.27 a6 6 0 1 0 12 0 a6 6 0 1 0 -12 0zM1806.7 1031.27 a6 6 0 1 0 12 0 a6 6 0 1 0 -12 0zM1806.7 971.27 a6 6 0 1 0 12 0 a6 6 0 1 0 -12 0zM1910.63 851.27 a6 6 0 1 0 12 0 a6 6 0 1 0 -12 0zM1962.59 881.27 a6 6 0 1 0 12 0 a6 6 0 1 0 -12 0zM1962.59 941.27 a6 6 0 1 0 12 0 a6 6 0 1 0 -12 0zM1858.67 941.27 a6 6 0 1 0 12 0 a6 6 0 1 0 -12 0zM1858.67 881.27 a6 6 0 1 0 12 0 a6 6 0 1 0 -12 0z" fill="rgba(9, 48, 9, 0.19)"></path><path d="M14.93 -67.87L107.6 -14.37L107.6 92.63L14.93 146.13L-77.74 92.63L-77.74 -14.37zM107.6 734.63L200.26 788.13L200.26 895.13L107.6 948.63L14.93 895.13L14.93 788.13zM200.26 -67.87L292.93 -14.37L292.93 92.63L200.26 146.13L107.6 92.63L107.6 -14.37zM200.26 574.13L292.93 627.63L292.93 734.63L200.26 788.13L107.6 734.63L107.6 627.63zM385.6 -67.87L478.27 -14.37L478.27 92.63L385.6 146.13L292.93 92.63L292.93 -14.37zM478.27 92.63L570.93 146.13L570.93 253.13L478.27 306.63L385.6 253.13L385.6 146.13zM663.6 92.63L756.27 146.13L756.27 253.13L663.6 306.63L570.93 253.13L570.93 146.13zM570.93 574.13L663.6 627.63L663.6 734.63L570.93 788.13L478.27 734.63L478.27 627.63zM756.27 -67.87L848.94 -14.37L848.94 92.63L756.27 146.13L663.6 92.63L663.6 -14.37zM848.94 734.63L941.6 788.13L941.6 895.13L848.94 948.63L756.27 895.13L756.27 788.13zM756.27 895.13L848.94 948.63L848.94 1055.63L756.27 1109.13L663.6 1055.63L663.6 948.63zM1126.94 -67.87L1219.61 -14.37L1219.61 92.63L1126.94 146.13L1034.27 92.63L1034.27 -14.37zM1126.94 253.13L1219.61 306.63L1219.61 413.63L1126.94 467.13L1034.27 413.63L1034.27 306.63zM1497.61 253.13L1590.27 306.63L1590.27 413.63L1497.61 467.13L1404.94 413.63L1404.94 306.63zM1590.27 413.63L1682.94 467.13L1682.94 574.13L1590.27 627.63L1497.61 574.13L1497.61 467.13zM1590.27 1055.63L1682.94 1109.13L1682.94 1216.13L1590.27 1269.63L1497.61 1216.13L1497.61 1109.13zM1775.61 92.63L1868.28 146.13L1868.28 253.13L1775.61 306.63L1682.94 253.13L1682.94 146.13zM1682.94 574.13L1775.61 627.63L1775.61 734.63L1682.94 788.13L1590.27 734.63L1590.27 627.63zM1775.61 734.63L1868.28 788.13L1868.28 895.13L1775.61 948.63L1682.94 895.13L1682.94 788.13zM1682.94 895.13L1775.61 948.63L1775.61 1055.63L1682.94 1109.13L1590.27 1055.63L1590.27 948.63zM1868.28 -67.87L1960.94 -14.37L1960.94 92.63L1868.28 146.13L1775.61 92.63L1775.61 -14.37z" stroke="rgba(9, 48, 9, 0.56)" stroke-width="2"></path></g><defs><mask id="SvgjsMask3978"><rect width="1920" height="1080" fill="#ffffff"></rect></mask><linearGradient x1="10.94%" y1="119.44%" x2="89.06%" y2="-19.44%" gradientUnits="userSpaceOnUse" id="SvgjsLinearGradient3979"><stop stop-color="rgba(3, 22, 2, 1)" offset="0"></stop><stop stop-color="rgba(13, 30, 9, 1)" offset="1"></stop></linearGradient></defs></svg>