<svg xmlns="http://www.w3.org/2000/svg" version="1.1" xmlns:xlink="http://www.w3.org/1999/xlink" xmlns:svgjs="http://svgjs.com/svgjs" width="1920" height="1080" preserveAspectRatio="none" viewBox="0 0 1920 1080"><g mask="url(&quot;#SvgjsMask4056&quot;)" fill="none"><rect width="1920" height="1080" x="0" y="0" fill="url(#SvgjsLinearGradient4057)"></rect><path d="M104.86 58.97L156.83 88.97L156.83 148.97L104.86 178.97L52.9 148.97L52.9 88.97zM52.9 148.97L104.86 178.97L104.86 238.97L52.9 268.97L0.94 238.97L0.94 178.97zM52.9 328.97L104.86 358.97L104.86 418.97L52.9 448.97L0.94 418.97L0.94 358.97zM52.9 508.97L104.86 538.97L104.86 598.97L52.9 628.97L0.94 598.97L0.94 538.97zM104.86 958.97L156.83 988.97L156.83 1048.97L104.86 1078.97L52.9 1048.97L52.9 988.97zM156.83 148.97L208.79 178.97L208.79 238.97L156.83 268.97L104.86 238.97L104.86 178.97zM156.83 328.97L208.79 358.97L208.79 418.97L156.83 448.97L104.86 418.97L104.86 358.97zM156.83 688.97L208.79 718.97L208.79 778.97L156.83 808.97L104.86 778.97L104.86 718.97zM260.75 148.97L312.71 178.97L312.71 238.97L260.75 268.97L208.79 238.97L208.79 178.97zM260.75 508.97L312.71 538.97L312.71 598.97L260.75 628.97L208.79 598.97L208.79 538.97zM312.71 778.97L364.68 808.97L364.68 868.97L312.71 898.97L260.75 868.97L260.75 808.97zM416.64 238.97L468.6 268.97L468.6 328.97L416.64 358.97L364.68 328.97L364.68 268.97zM416.64 958.97L468.6 988.97L468.6 1048.97L416.64 1078.97L364.68 1048.97L364.68 988.97zM364.68 1048.97L416.64 1078.97L416.64 1138.97L364.68 1168.97L312.71 1138.97L312.71 1078.97zM624.49 418.97L676.46 448.97L676.46 508.97L624.49 538.97L572.53 508.97L572.53 448.97zM624.49 598.97L676.46 628.97L676.46 688.97L624.49 718.97L572.53 688.97L572.53 628.97zM624.49 778.97L676.46 808.97L676.46 868.97L624.49 898.97L572.53 868.97L572.53 808.97zM572.53 868.97L624.49 898.97L624.49 958.97L572.53 988.97L520.57 958.97L520.57 898.97zM572.53 1048.97L624.49 1078.97L624.49 1138.97L572.53 1168.97L520.57 1138.97L520.57 1078.97zM676.46 328.97L728.42 358.97L728.42 418.97L676.46 448.97L624.49 418.97L624.49 358.97zM676.46 868.97L728.42 898.97L728.42 958.97L676.46 988.97L624.49 958.97L624.49 898.97zM832.34 238.97L884.31 268.97L884.31 328.97L832.34 358.97L780.38 328.97L780.38 268.97zM780.38 688.97L832.34 718.97L832.34 778.97L780.38 808.97L728.42 778.97L728.42 718.97zM936.27 418.97L988.23 448.97L988.23 508.97L936.27 538.97L884.31 508.97L884.31 448.97zM884.31 688.97L936.27 718.97L936.27 778.97L884.31 808.97L832.35 778.97L832.35 718.97zM884.31 868.97L936.27 898.97L936.27 958.97L884.31 988.97L832.35 958.97L832.35 898.97zM1040.2 58.97L1092.16 88.97L1092.16 148.97L1040.2 178.97L988.23 148.97L988.23 88.97zM988.23 328.97L1040.2 358.97L1040.2 418.97L988.23 448.97L936.27 418.97L936.27 358.97zM988.23 688.97L1040.2 718.97L1040.2 778.97L988.23 808.97L936.27 778.97L936.27 718.97zM1040.2 778.97L1092.16 808.97L1092.16 868.97L1040.2 898.97L988.23 868.97L988.23 808.97zM1040.2 958.97L1092.16 988.97L1092.16 1048.97L1040.2 1078.97L988.23 1048.97L988.23 988.97zM1144.12 418.97L1196.09 448.97L1196.09 508.97L1144.12 538.97L1092.16 508.97L1092.16 448.97zM1092.16 688.97L1144.12 718.97L1144.12 778.97L1092.16 808.97L1040.2 778.97L1040.2 718.97zM1144.12 958.97L1196.09 988.97L1196.09 1048.97L1144.12 1078.97L1092.16 1048.97L1092.16 988.97zM1196.09 328.97L1248.05 358.97L1248.05 418.97L1196.09 448.97L1144.12 418.97L1144.12 358.97zM1196.09 508.97L1248.05 538.97L1248.05 598.97L1196.09 628.97L1144.12 598.97L1144.12 538.97zM1248.05 598.97L1300.01 628.97L1300.01 688.97L1248.05 718.97L1196.09 688.97L1196.09 628.97zM1248.05 778.97L1300.01 808.97L1300.01 868.97L1248.05 898.97L1196.09 868.97L1196.09 808.97zM1351.98 418.97L1403.94 448.97L1403.94 508.97L1351.98 538.97L1300.01 508.97L1300.01 448.97zM1351.98 598.97L1403.94 628.97L1403.94 688.97L1351.98 718.97L1300.01 688.97L1300.01 628.97zM1351.98 958.97L1403.94 988.97L1403.94 1048.97L1351.98 1078.97L1300.01 1048.97L1300.01 988.97zM1403.94 148.97L1455.9 178.97L1455.9 238.97L1403.94 268.97L1351.98 238.97L1351.98 178.97zM1455.9 958.97L1507.86 988.97L1507.86 1048.97L1455.9 1078.97L1403.94 1048.97L1403.94 988.97zM1507.86 -31.03L1559.83 -1.03L1559.83 58.97L1507.86 88.97L1455.9 58.97L1455.9 -1.03zM1507.86 328.97L1559.83 358.97L1559.83 418.97L1507.86 448.97L1455.9 418.97L1455.9 358.97zM1559.83 778.97L1611.79 808.97L1611.79 868.97L1559.83 898.97L1507.86 868.97L1507.86 808.97zM1663.75 598.97L1715.72 628.97L1715.72 688.97L1663.75 718.97L1611.79 688.97L1611.79 628.97zM1663.75 958.97L1715.72 988.97L1715.72 1048.97L1663.75 1078.97L1611.79 1048.97L1611.79 988.97zM1715.72 -31.03L1767.68 -1.03L1767.68 58.97L1715.72 88.97L1663.75 58.97L1663.75 -1.03zM1767.68 58.97L1819.64 88.97L1819.64 148.97L1767.68 178.97L1715.72 148.97L1715.72 88.97zM1767.68 778.97L1819.64 808.97L1819.64 868.97L1767.68 898.97L1715.72 868.97L1715.72 808.97zM1871.61 958.97L1923.57 988.97L1923.57 1048.97L1871.61 1078.97L1819.64 1048.97L1819.64 988.97zM1923.57 148.97L1975.53 178.97L1975.53 238.97L1923.57 268.97L1871.61 238.97L1871.61 178.97zM1975.53 958.97L2027.49 988.97L2027.49 1048.97L1975.53 1078.97L1923.57 1048.97L1923.57 988.97z" stroke="rgba(9, 48, 9, 0.19)" stroke-width="2"></path><path d="M98.86 58.97 a6 6 0 1 0 12 0 a6 6 0 1 0 -12 0zM150.83 88.97 a6 6 0 1 0 12 0 a6 6 0 1 0 -12 0zM150.83 148.97 a6 6 0 1 0 12 0 a6 6 0 1 0 -12 0zM98.86 178.97 a6 6 0 1 0 12 0 a6 6 0 1 0 -12 0zM46.9 148.97 a6 6 0 1 0 12 0 a6 6 0 1 0 -12 0zM46.9 88.97 a6 6 0 1 0 12 0 a6 6 0 1 0 -12 0zM98.86 238.97 a6 6 0 1 0 12 0 a6 6 0 1 0 -12 0zM46.9 268.97 a6 6 0 1 0 12 0 a6 6 0 1 0 -12 0zM-5.06 238.97 a6 6 0 1 0 12 0 a6 6 0 1 0 -12 0zM-5.06 178.97 a6 6 0 1 0 12 0 a6 6 0 1 0 -12 0zM46.9 328.97 a6 6 0 1 0 12 0 a6 6 0 1 0 -12 0zM98.86 358.97 a6 6 0 1 0 12 0 a6 6 0 1 0 -12 0zM98.86 418.97 a6 6 0 1 0 12 0 a6 6 0 1 0 -12 0zM46.9 448.97 a6 6 0 1 0 12 0 a6 6 0 1 0 -12 0zM-5.06 418.97 a6 6 0 1 0 12 0 a6 6 0 1 0 -12 0zM-5.06 358.97 a6 6 0 1 0 12 0 a6 6 0 1 0 -12 0zM46.9 508.97 a6 6 0 1 0 12 0 a6 6 0 1 0 -12 0zM98.86 538.97 a6 6 0 1 0 12 0 a6 6 0 1 0 -12 0zM98.86 598.97 a6 6 0 1 0 12 0 a6 6 0 1 0 -12 0zM46.9 628.97 a6 6 0 1 0 12 0 a6 6 0 1 0 -12 0zM-5.06 598.97 a6 6 0 1 0 12 0 a6 6 0 1 0 -12 0zM-5.06 538.97 a6 6 0 1 0 12 0 a6 6 0 1 0 -12 0zM98.86 958.97 a6 6 0 1 0 12 0 a6 6 0 1 0 -12 0zM150.83 988.97 a6 6 0 1 0 12 0 a6 6 0 1 0 -12 0zM150.83 1048.97 a6 6 0 1 0 12 0 a6 6 0 1 0 -12 0zM98.86 1078.97 a6 6 0 1 0 12 0 a6 6 0 1 0 -12 0zM46.9 1048.97 a6 6 0 1 0 12 0 a6 6 0 1 0 -12 0zM46.9 988.97 a6 6 0 1 0 12 0 a6 6 0 1 0 -12 0zM202.79 178.97 a6 6 0 1 0 12 0 a6 6 0 1 0 -12 0zM202.79 238.97 a6 6 0 1 0 12 0 a6 6 0 1 0 -12 0zM150.83 268.97 a6 6 0 1 0 12 0 a6 6 0 1 0 -12 0zM150.83 328.97 a6 6 0 1 0 12 0 a6 6 0 1 0 -12 0zM202.79 358.97 a6 6 0 1 0 12 0 a6 6 0 1 0 -12 0zM202.79 418.97 a6 6 0 1 0 12 0 a6 6 0 1 0 -12 0zM150.83 448.97 a6 6 0 1 0 12 0 a6 6 0 1 0 -12 0zM150.83 688.97 a6 6 0 1 0 12 0 a6 6 0 1 0 -12 0zM202.79 718.97 a6 6 0 1 0 12 0 a6 6 0 1 0 -12 0zM202.79 778.97 a6 6 0 1 0 12 0 a6 6 0 1 0 -12 0zM150.83 808.97 a6 6 0 1 0 12 0 a6 6 0 1 0 -12 0zM98.86 778.97 a6 6 0 1 0 12 0 a6 6 0 1 0 -12 0zM98.86 718.97 a6 6 0 1 0 12 0 a6 6 0 1 0 -12 0zM254.75 148.97 a6 6 0 1 0 12 0 a6 6 0 1 0 -12 0zM306.71 178.97 a6 6 0 1 0 12 0 a6 6 0 1 0 -12 0zM306.71 238.97 a6 6 0 1 0 12 0 a6 6 0 1 0 -12 0zM254.75 268.97 a6 6 0 1 0 12 0 a6 6 0 1 0 -12 0zM254.75 508.97 a6 6 0 1 0 12 0 a6 6 0 1 0 -12 0zM306.71 538.97 a6 6 0 1 0 12 0 a6 6 0 1 0 -12 0zM306.71 598.97 a6 6 0 1 0 12 0 a6 6 0 1 0 -12 0zM254.75 628.97 a6 6 0 1 0 12 0 a6 6 0 1 0 -12 0zM202.79 598.97 a6 6 0 1 0 12 0 a6 6 0 1 0 -12 0zM202.79 538.97 a6 6 0 1 0 12 0 a6 6 0 1 0 -12 0zM306.71 778.97 a6 6 0 1 0 12 0 a6 6 0 1 0 -12 0zM358.68 808.97 a6 6 0 1 0 12 0 a6 6 0 1 0 -12 0zM358.68 868.97 a6 6 0 1 0 12 0 a6 6 0 1 0 -12 0zM306.71 898.97 a6 6 0 1 0 12 0 a6 6 0 1 0 -12 0zM254.75 868.97 a6 6 0 1 0 12 0 a6 6 0 1 0 -12 0zM254.75 808.97 a6 6 0 1 0 12 0 a6 6 0 1 0 -12 0zM410.64 238.97 a6 6 0 1 0 12 0 a6 6 0 1 0 -12 0zM462.6 268.97 a6 6 0 1 0 12 0 a6 6 0 1 0 -12 0zM462.6 328.97 a6 6 0 1 0 12 0 a6 6 0 1 0 -12 0zM410.64 358.97 a6 6 0 1 0 12 0 a6 6 0 1 0 -12 0zM358.68 328.97 a6 6 0 1 0 12 0 a6 6 0 1 0 -12 0zM358.68 268.97 a6 6 0 1 0 12 0 a6 6 0 1 0 -12 0zM410.64 958.97 a6 6 0 1 0 12 0 a6 6 0 1 0 -12 0zM462.6 988.97 a6 6 0 1 0 12 0 a6 6 0 1 0 -12 0zM462.6 1048.97 a6 6 0 1 0 12 0 a6 6 0 1 0 -12 0zM410.64 1078.97 a6 6 0 1 0 12 0 a6 6 0 1 0 -12 0zM358.68 1048.97 a6 6 0 1 0 12 0 a6 6 0 1 0 -12 0zM358.68 988.97 a6 6 0 1 0 12 0 a6 6 0 1 0 -12 0zM410.64 1138.97 a6 6 0 1 0 12 0 a6 6 0 1 0 -12 0zM358.68 1168.97 a6 6 0 1 0 12 0 a6 6 0 1 0 -12 0zM306.71 1138.97 a6 6 0 1 0 12 0 a6 6 0 1 0 -12 0zM306.71 1078.97 a6 6 0 1 0 12 0 a6 6 0 1 0 -12 0zM618.49 418.97 a6 6 0 1 0 12 0 a6 6 0 1 0 -12 0zM670.46 448.97 a6 6 0 1 0 12 0 a6 6 0 1 0 -12 0zM670.46 508.97 a6 6 0 1 0 12 0 a6 6 0 1 0 -12 0zM618.49 538.97 a6 6 0 1 0 12 0 a6 6 0 1 0 -12 0zM566.53 508.97 a6 6 0 1 0 12 0 a6 6 0 1 0 -12 0zM566.53 448.97 a6 6 0 1 0 12 0 a6 6 0 1 0 -12 0zM618.49 598.97 a6 6 0 1 0 12 0 a6 6 0 1 0 -12 0zM670.46 628.97 a6 6 0 1 0 12 0 a6 6 0 1 0 -12 0zM670.46 688.97 a6 6 0 1 0 12 0 a6 6 0 1 0 -12 0zM618.49 718.97 a6 6 0 1 0 12 0 a6 6 0 1 0 -12 0zM566.53 688.97 a6 6 0 1 0 12 0 a6 6 0 1 0 -12 0zM566.53 628.97 a6 6 0 1 0 12 0 a6 6 0 1 0 -12 0zM618.49 778.97 a6 6 0 1 0 12 0 a6 6 0 1 0 -12 0zM670.46 808.97 a6 6 0 1 0 12 0 a6 6 0 1 0 -12 0zM670.46 868.97 a6 6 0 1 0 12 0 a6 6 0 1 0 -12 0zM618.49 898.97 a6 6 0 1 0 12 0 a6 6 0 1 0 -12 0zM566.53 868.97 a6 6 0 1 0 12 0 a6 6 0 1 0 -12 0zM566.53 808.97 a6 6 0 1 0 12 0 a6 6 0 1 0 -12 0zM618.49 958.97 a6 6 0 1 0 12 0 a6 6 0 1 0 -12 0zM566.53 988.97 a6 6 0 1 0 12 0 a6 6 0 1 0 -12 0zM514.57 958.97 a6 6 0 1 0 12 0 a6 6 0 1 0 -12 0zM514.57 898.97 a6 6 0 1 0 12 0 a6 6 0 1 0 -12 0zM566.53 1048.97 a6 6 0 1 0 12 0 a6 6 0 1 0 -12 0zM618.49 1078.97 a6 6 0 1 0 12 0 a6 6 0 1 0 -12 0zM618.49 1138.97 a6 6 0 1 0 12 0 a6 6 0 1 0 -12 0zM566.53 1168.97 a6 6 0 1 0 12 0 a6 6 0 1 0 -12 0zM514.57 1138.97 a6 6 0 1 0 12 0 a6 6 0 1 0 -12 0zM514.57 1078.97 a6 6 0 1 0 12 0 a6 6 0 1 0 -12 0zM670.46 328.97 a6 6 0 1 0 12 0 a6 6 0 1 0 -12 0zM722.42 358.97 a6 6 0 1 0 12 0 a6 6 0 1 0 -12 0zM722.42 418.97 a6 6 0 1 0 12 0 a6 6 0 1 0 -12 0zM618.49 358.97 a6 6 0 1 0 12 0 a6 6 0 1 0 -12 0zM722.42 898.97 a6 6 0 1 0 12 0 a6 6 0 1 0 -12 0zM722.42 958.97 a6 6 0 1 0 12 0 a6 6 0 1 0 -12 0zM670.46 988.97 a6 6 0 1 0 12 0 a6 6 0 1 0 -12 0zM826.34 238.97 a6 6 0 1 0 12 0 a6 6 0 1 0 -12 0zM878.31 268.97 a6 6 0 1 0 12 0 a6 6 0 1 0 -12 0zM878.31 328.97 a6 6 0 1 0 12 0 a6 6 0 1 0 -12 0zM826.34 358.97 a6 6 0 1 0 12 0 a6 6 0 1 0 -12 0zM774.38 328.97 a6 6 0 1 0 12 0 a6 6 0 1 0 -12 0zM774.38 268.97 a6 6 0 1 0 12 0 a6 6 0 1 0 -12 0zM774.38 688.97 a6 6 0 1 0 12 0 a6 6 0 1 0 -12 0zM826.34 718.97 a6 6 0 1 0 12 0 a6 6 0 1 0 -12 0zM826.34 778.97 a6 6 0 1 0 12 0 a6 6 0 1 0 -12 0zM774.38 808.97 a6 6 0 1 0 12 0 a6 6 0 1 0 -12 0zM722.42 778.97 a6 6 0 1 0 12 0 a6 6 0 1 0 -12 0zM722.42 718.97 a6 6 0 1 0 12 0 a6 6 0 1 0 -12 0zM930.27 418.97 a6 6 0 1 0 12 0 a6 6 0 1 0 -12 0zM982.23 448.97 a6 6 0 1 0 12 0 a6 6 0 1 0 -12 0zM982.23 508.97 a6 6 0 1 0 12 0 a6 6 0 1 0 -12 0zM930.27 538.97 a6 6 0 1 0 12 0 a6 6 0 1 0 -12 0zM878.31 508.97 a6 6 0 1 0 12 0 a6 6 0 1 0 -12 0zM878.31 448.97 a6 6 0 1 0 12 0 a6 6 0 1 0 -12 0zM878.31 688.97 a6 6 0 1 0 12 0 a6 6 0 1 0 -12 0zM930.27 718.97 a6 6 0 1 0 12 0 a6 6 0 1 0 -12 0zM930.27 778.97 a6 6 0 1 0 12 0 a6 6 0 1 0 -12 0zM878.31 808.97 a6 6 0 1 0 12 0 a6 6 0 1 0 -12 0zM826.35 778.97 a6 6 0 1 0 12 0 a6 6 0 1 0 -12 0zM826.35 718.97 a6 6 0 1 0 12 0 a6 6 0 1 0 -12 0zM878.31 868.97 a6 6 0 1 0 12 0 a6 6 0 1 0 -12 0zM930.27 898.97 a6 6 0 1 0 12 0 a6 6 0 1 0 -12 0zM930.27 958.97 a6 6 0 1 0 12 0 a6 6 0 1 0 -12 0zM878.31 988.97 a6 6 0 1 0 12 0 a6 6 0 1 0 -12 0zM826.35 958.97 a6 6 0 1 0 12 0 a6 6 0 1 0 -12 0zM826.35 898.97 a6 6 0 1 0 12 0 a6 6 0 1 0 -12 0zM1034.2 58.97 a6 6 0 1 0 12 0 a6 6 0 1 0 -12 0zM1086.16 88.97 a6 6 0 1 0 12 0 a6 6 0 1 0 -12 0zM1086.16 148.97 a6 6 0 1 0 12 0 a6 6 0 1 0 -12 0zM1034.2 178.97 a6 6 0 1 0 12 0 a6 6 0 1 0 -12 0zM982.23 148.97 a6 6 0 1 0 12 0 a6 6 0 1 0 -12 0zM982.23 88.97 a6 6 0 1 0 12 0 a6 6 0 1 0 -12 0zM982.23 328.97 a6 6 0 1 0 12 0 a6 6 0 1 0 -12 0zM1034.2 358.97 a6 6 0 1 0 12 0 a6 6 0 1 0 -12 0zM1034.2 418.97 a6 6 0 1 0 12 0 a6 6 0 1 0 -12 0zM930.27 358.97 a6 6 0 1 0 12 0 a6 6 0 1 0 -12 0zM982.23 688.97 a6 6 0 1 0 12 0 a6 6 0 1 0 -12 0zM1034.2 718.97 a6 6 0 1 0 12 0 a6 6 0 1 0 -12 0zM1034.2 778.97 a6 6 0 1 0 12 0 a6 6 0 1 0 -12 0zM982.23 808.97 a6 6 0 1 0 12 0 a6 6 0 1 0 -12 0zM1086.16 808.97 a6 6 0 1 0 12 0 a6 6 0 1 0 -12 0zM1086.16 868.97 a6 6 0 1 0 12 0 a6 6 0 1 0 -12 0zM1034.2 898.97 a6 6 0 1 0 12 0 a6 6 0 1 0 -12 0zM982.23 868.97 a6 6 0 1 0 12 0 a6 6 0 1 0 -12 0zM1034.2 958.97 a6 6 0 1 0 12 0 a6 6 0 1 0 -12 0zM1086.16 988.97 a6 6 0 1 0 12 0 a6 6 0 1 0 -12 0zM1086.16 1048.97 a6 6 0 1 0 12 0 a6 6 0 1 0 -12 0zM1034.2 1078.97 a6 6 0 1 0 12 0 a6 6 0 1 0 -12 0zM982.23 1048.97 a6 6 0 1 0 12 0 a6 6 0 1 0 -12 0zM982.23 988.97 a6 6 0 1 0 12 0 a6 6 0 1 0 -12 0zM1138.12 418.97 a6 6 0 1 0 12 0 a6 6 0 1 0 -12 0zM1190.09 448.97 a6 6 0 1 0 12 0 a6 6 0 1 0 -12 0zM1190.09 508.97 a6 6 0 1 0 12 0 a6 6 0 1 0 -12 0zM1138.12 538.97 a6 6 0 1 0 12 0 a6 6 0 1 0 -12 0zM1086.16 508.97 a6 6 0 1 0 12 0 a6 6 0 1 0 -12 0zM1086.16 448.97 a6 6 0 1 0 12 0 a6 6 0 1 0 -12 0zM1086.16 688.97 a6 6 0 1 0 12 0 a6 6 0 1 0 -12 0zM1138.12 718.97 a6 6 0 1 0 12 0 a6 6 0 1 0 -12 0zM1138.12 778.97 a6 6 0 1 0 12 0 a6 6 0 1 0 -12 0zM1138.12 958.97 a6 6 0 1 0 12 0 a6 6 0 1 0 -12 0zM1190.09 988.97 a6 6 0 1 0 12 0 a6 6 0 1 0 -12 0zM1190.09 1048.97 a6 6 0 1 0 12 0 a6 6 0 1 0 -12 0zM1138.12 1078.97 a6 6 0 1 0 12 0 a6 6 0 1 0 -12 0zM1190.09 328.97 a6 6 0 1 0 12 0 a6 6 0 1 0 -12 0zM1242.05 358.97 a6 6 0 1 0 12 0 a6 6 0 1 0 -12 0zM1242.05 418.97 a6 6 0 1 0 12 0 a6 6 0 1 0 -12 0zM1138.12 358.97 a6 6 0 1 0 12 0 a6 6 0 1 0 -12 0zM1242.05 538.97 a6 6 0 1 0 12 0 a6 6 0 1 0 -12 0zM1242.05 598.97 a6 6 0 1 0 12 0 a6 6 0 1 0 -12 0zM1190.09 628.97 a6 6 0 1 0 12 0 a6 6 0 1 0 -12 0zM1138.12 598.97 a6 6 0 1 0 12 0 a6 6 0 1 0 -12 0zM1294.01 628.97 a6 6 0 1 0 12 0 a6 6 0 1 0 -12 0zM1294.01 688.97 a6 6 0 1 0 12 0 a6 6 0 1 0 -12 0zM1242.05 718.97 a6 6 0 1 0 12 0 a6 6 0 1 0 -12 0zM1190.09 688.97 a6 6 0 1 0 12 0 a6 6 0 1 0 -12 0zM1242.05 778.97 a6 6 0 1 0 12 0 a6 6 0 1 0 -12 0zM1294.01 808.97 a6 6 0 1 0 12 0 a6 6 0 1 0 -12 0zM1294.01 868.97 a6 6 0 1 0 12 0 a6 6 0 1 0 -12 0zM1242.05 898.97 a6 6 0 1 0 12 0 a6 6 0 1 0 -12 0zM1190.09 868.97 a6 6 0 1 0 12 0 a6 6 0 1 0 -12 0zM1190.09 808.97 a6 6 0 1 0 12 0 a6 6 0 1 0 -12 0zM1345.98 418.97 a6 6 0 1 0 12 0 a6 6 0 1 0 -12 0zM1397.94 448.97 a6 6 0 1 0 12 0 a6 6 0 1 0 -12 0zM1397.94 508.97 a6 6 0 1 0 12 0 a6 6 0 1 0 -12 0zM1345.98 538.97 a6 6 0 1 0 12 0 a6 6 0 1 0 -12 0zM1294.01 508.97 a6 6 0 1 0 12 0 a6 6 0 1 0 -12 0zM1294.01 448.97 a6 6 0 1 0 12 0 a6 6 0 1 0 -12 0zM1345.98 598.97 a6 6 0 1 0 12 0 a6 6 0 1 0 -12 0zM1397.94 628.97 a6 6 0 1 0 12 0 a6 6 0 1 0 -12 0zM1397.94 688.97 a6 6 0 1 0 12 0 a6 6 0 1 0 -12 0zM1345.98 718.97 a6 6 0 1 0 12 0 a6 6 0 1 0 -12 0zM1345.98 958.97 a6 6 0 1 0 12 0 a6 6 0 1 0 -12 0zM1397.94 988.97 a6 6 0 1 0 12 0 a6 6 0 1 0 -12 0zM1397.94 1048.97 a6 6 0 1 0 12 0 a6 6 0 1 0 -12 0zM1345.98 1078.97 a6 6 0 1 0 12 0 a6 6 0 1 0 -12 0zM1294.01 1048.97 a6 6 0 1 0 12 0 a6 6 0 1 0 -12 0zM1294.01 988.97 a6 6 0 1 0 12 0 a6 6 0 1 0 -12 0zM1397.94 148.97 a6 6 0 1 0 12 0 a6 6 0 1 0 -12 0zM1449.9 178.97 a6 6 0 1 0 12 0 a6 6 0 1 0 -12 0zM1449.9 238.97 a6 6 0 1 0 12 0 a6 6 0 1 0 -12 0zM1397.94 268.97 a6 6 0 1 0 12 0 a6 6 0 1 0 -12 0zM1345.98 238.97 a6 6 0 1 0 12 0 a6 6 0 1 0 -12 0zM1345.98 178.97 a6 6 0 1 0 12 0 a6 6 0 1 0 -12 0zM1449.9 958.97 a6 6 0 1 0 12 0 a6 6 0 1 0 -12 0zM1501.86 988.97 a6 6 0 1 0 12 0 a6 6 0 1 0 -12 0zM1501.86 1048.97 a6 6 0 1 0 12 0 a6 6 0 1 0 -12 0zM1449.9 1078.97 a6 6 0 1 0 12 0 a6 6 0 1 0 -12 0zM1501.86 -31.03 a6 6 0 1 0 12 0 a6 6 0 1 0 -12 0zM1553.83 -1.03 a6 6 0 1 0 12 0 a6 6 0 1 0 -12 0zM1553.83 58.97 a6 6 0 1 0 12 0 a6 6 0 1 0 -12 0zM1501.86 88.97 a6 6 0 1 0 12 0 a6 6 0 1 0 -12 0zM1449.9 58.97 a6 6 0 1 0 12 0 a6 6 0 1 0 -12 0zM1449.9 -1.03 a6 6 0 1 0 12 0 a6 6 0 1 0 -12 0zM1501.86 328.97 a6 6 0 1 0 12 0 a6 6 0 1 0 -12 0zM1553.83 358.97 a6 6 0 1 0 12 0 a6 6 0 1 0 -12 0zM1553.83 418.97 a6 6 0 1 0 12 0 a6 6 0 1 0 -12 0zM1501.86 448.97 a6 6 0 1 0 12 0 a6 6 0 1 0 -12 0zM1449.9 418.97 a6 6 0 1 0 12 0 a6 6 0 1 0 -12 0zM1449.9 358.97 a6 6 0 1 0 12 0 a6 6 0 1 0 -12 0zM1553.83 778.97 a6 6 0 1 0 12 0 a6 6 0 1 0 -12 0zM1605.79 808.97 a6 6 0 1 0 12 0 a6 6 0 1 0 -12 0zM1605.79 868.97 a6 6 0 1 0 12 0 a6 6 0 1 0 -12 0zM1553.83 898.97 a6 6 0 1 0 12 0 a6 6 0 1 0 -12 0zM1501.86 868.97 a6 6 0 1 0 12 0 a6 6 0 1 0 -12 0zM1501.86 808.97 a6 6 0 1 0 12 0 a6 6 0 1 0 -12 0zM1657.75 598.97 a6 6 0 1 0 12 0 a6 6 0 1 0 -12 0zM1709.72 628.97 a6 6 0 1 0 12 0 a6 6 0 1 0 -12 0zM1709.72 688.97 a6 6 0 1 0 12 0 a6 6 0 1 0 -12 0zM1657.75 718.97 a6 6 0 1 0 12 0 a6 6 0 1 0 -12 0zM1605.79 688.97 a6 6 0 1 0 12 0 a6 6 0 1 0 -12 0zM1605.79 628.97 a6 6 0 1 0 12 0 a6 6 0 1 0 -12 0zM1657.75 958.97 a6 6 0 1 0 12 0 a6 6 0 1 0 -12 0zM1709.72 988.97 a6 6 0 1 0 12 0 a6 6 0 1 0 -12 0zM1709.72 1048.97 a6 6 0 1 0 12 0 a6 6 0 1 0 -12 0zM1657.75 1078.97 a6 6 0 1 0 12 0 a6 6 0 1 0 -12 0zM1605.79 1048.97 a6 6 0 1 0 12 0 a6 6 0 1 0 -12 0zM1605.79 988.97 a6 6 0 1 0 12 0 a6 6 0 1 0 -12 0zM1709.72 -31.03 a6 6 0 1 0 12 0 a6 6 0 1 0 -12 0zM1761.68 -1.03 a6 6 0 1 0 12 0 a6 6 0 1 0 -12 0zM1761.68 58.97 a6 6 0 1 0 12 0 a6 6 0 1 0 -12 0zM1709.72 88.97 a6 6 0 1 0 12 0 a6 6 0 1 0 -12 0zM1657.75 58.97 a6 6 0 1 0 12 0 a6 6 0 1 0 -12 0zM1657.75 -1.03 a6 6 0 1 0 12 0 a6 6 0 1 0 -12 0zM1813.64 88.97 a6 6 0 1 0 12 0 a6 6 0 1 0 -12 0zM1813.64 148.97 a6 6 0 1 0 12 0 a6 6 0 1 0 -12 0zM1761.68 178.97 a6 6 0 1 0 12 0 a6 6 0 1 0 -12 0zM1709.72 148.97 a6 6 0 1 0 12 0 a6 6 0 1 0 -12 0zM1761.68 778.97 a6 6 0 1 0 12 0 a6 6 0 1 0 -12 0zM1813.64 808.97 a6 6 0 1 0 12 0 a6 6 0 1 0 -12 0zM1813.64 868.97 a6 6 0 1 0 12 0 a6 6 0 1 0 -12 0zM1761.68 898.97 a6 6 0 1 0 12 0 a6 6 0 1 0 -12 0zM1709.72 868.97 a6 6 0 1 0 12 0 a6 6 0 1 0 -12 0zM1709.72 808.97 a6 6 0 1 0 12 0 a6 6 0 1 0 -12 0zM1865.61 958.97 a6 6 0 1 0 12 0 a6 6 0 1 0 -12 0zM1917.57 988.97 a6 6 0 1 0 12 0 a6 6 0 1 0 -12 0zM1917.57 1048.97 a6 6 0 1 0 12 0 a6 6 0 1 0 -12 0zM1865.61 1078.97 a6 6 0 1 0 12 0 a6 6 0 1 0 -12 0zM1813.64 1048.97 a6 6 0 1 0 12 0 a6 6 0 1 0 -12 0zM1813.64 988.97 a6 6 0 1 0 12 0 a6 6 0 1 0 -12 0zM1917.57 148.97 a6 6 0 1 0 12 0 a6 6 0 1 0 -12 0zM1969.53 178.97 a6 6 0 1 0 12 0 a6 6 0 1 0 -12 0zM1969.53 238.97 a6 6 0 1 0 12 0 a6 6 0 1 0 -12 0zM1917.57 268.97 a6 6 0 1 0 12 0 a6 6 0 1 0 -12 0zM1865.61 238.97 a6 6 0 1 0 12 0 a6 6 0 1 0 -12 0zM1865.61 178.97 a6 6 0 1 0 12 0 a6 6 0 1 0 -12 0zM1969.53 958.97 a6 6 0 1 0 12 0 a6 6 0 1 0 -12 0zM2021.49 988.97 a6 6 0 1 0 12 0 a6 6 0 1 0 -12 0zM2021.49 1048.97 a6 6 0 1 0 12 0 a6 6 0 1 0 -12 0zM1969.53 1078.97 a6 6 0 1 0 12 0 a6 6 0 1 0 -12 0z" fill="rgba(9, 48, 9, 0.19)"></path><path d="M23.49 -1.62L117.89 52.88L117.89 161.88L23.49 216.38L-70.91 161.88L-70.91 52.88zM117.89 161.88L212.29 216.38L212.29 325.38L117.89 379.88L23.49 325.38L23.49 216.38zM212.29 325.38L306.69 379.88L306.69 488.88L212.29 543.38L117.89 488.88L117.89 379.88zM306.69 815.88L401.09 870.38L401.09 979.38L306.69 1033.88L212.29 979.38L212.29 870.38zM212.29 979.38L306.69 1033.88L306.69 1142.88L212.29 1197.38L117.89 1142.88L117.89 1033.88zM401.09 652.38L495.49 706.88L495.49 815.88L401.09 870.38L306.69 815.88L306.69 706.88zM589.89 -1.62L684.29 52.88L684.29 161.88L589.89 216.38L495.49 161.88L495.49 52.88zM589.89 652.38L684.29 706.88L684.29 815.88L589.89 870.38L495.49 815.88L495.49 706.88zM589.89 979.38L684.29 1033.88L684.29 1142.88L589.89 1197.38L495.49 1142.88L495.49 1033.88zM684.29 1142.88L778.69 1197.38L778.69 1306.38L684.29 1360.88L589.89 1306.38L589.89 1197.38zM873.09 815.88L967.48 870.38L967.48 979.38L873.09 1033.88L778.69 979.38L778.69 870.38zM873.09 1142.88L967.48 1197.38L967.48 1306.38L873.09 1360.88L778.69 1306.38L778.69 1197.38zM1156.28 -1.62L1250.68 52.88L1250.68 161.88L1156.28 216.38L1061.88 161.88L1061.88 52.88zM1156.28 325.38L1250.68 379.88L1250.68 488.88L1156.28 543.38L1061.88 488.88L1061.88 379.88zM1250.68 488.88L1345.08 543.38L1345.08 652.38L1250.68 706.88L1156.28 652.38L1156.28 543.38zM1156.28 652.38L1250.68 706.88L1250.68 815.88L1156.28 870.38L1061.88 815.88L1061.88 706.88zM1439.48 815.88L1533.88 870.38L1533.88 979.38L1439.48 1033.88L1345.08 979.38L1345.08 870.38zM1533.88 -1.62L1628.28 52.88L1628.28 161.88L1533.88 216.38L1439.48 161.88L1439.48 52.88zM1628.28 161.88L1722.68 216.38L1722.68 325.38L1628.28 379.88L1533.88 325.38L1533.88 216.38zM1533.88 325.38L1628.28 379.88L1628.28 488.88L1533.88 543.38L1439.48 488.88L1439.48 379.88zM1533.88 652.38L1628.28 706.88L1628.28 815.88L1533.88 870.38L1439.48 815.88L1439.48 706.88zM1628.28 815.88L1722.68 870.38L1722.68 979.38L1628.28 1033.88L1533.88 979.38L1533.88 870.38zM1533.88 979.38L1628.28 1033.88L1628.28 1142.88L1533.88 1197.38L1439.48 1142.88L1439.48 1033.88zM1722.68 979.38L1817.08 1033.88L1817.08 1142.88L1722.68 1197.38L1628.28 1142.88L1628.28 1033.88zM1817.08 1142.88L1911.48 1197.38L1911.48 1306.38L1817.08 1360.88L1722.68 1306.38L1722.68 1197.38zM1911.48 325.38L2005.88 379.88L2005.88 488.88L1911.48 543.38L1817.08 488.88L1817.08 379.88zM1911.48 652.38L2005.88 706.88L2005.88 815.88L1911.48 870.38L1817.08 815.88L1817.08 706.88zM1911.48 979.38L2005.88 1033.88L2005.88 1142.88L1911.48 1197.38L1817.08 1142.88L1817.08 1033.88z" stroke="rgba(9, 48, 9, 0.56)" stroke-width="2"></path></g><defs><mask id="SvgjsMask4056"><rect width="1920" height="1080" fill="#ffffff"></rect></mask><linearGradient x1="10.94%" y1="119.44%" x2="89.06%" y2="-19.44%" gradientUnits="userSpaceOnUse" id="SvgjsLinearGradient4057"><stop stop-color="rgba(3, 22, 2, 1)" offset="0"></stop><stop stop-color="rgba(13, 30, 9, 1)" offset="1"></stop></linearGradient></defs></svg>