<svg xmlns="http://www.w3.org/2000/svg" version="1.1" xmlns:xlink="http://www.w3.org/1999/xlink" xmlns:svgjs="http://svgjs.com/svgjs" width="1920" height="1080" preserveAspectRatio="none" viewBox="0 0 1920 1080"><g mask="url(&quot;#SvgjsMask3998&quot;)" fill="none"><rect width="1920" height="1080" x="0" y="0" fill="url(#SvgjsLinearGradient3999)"></rect><path d="M99.34 80.72L151.31 110.72L151.31 170.72L99.34 200.72L47.38 170.72L47.38 110.72zM47.38 170.72L99.34 200.72L99.34 260.72L47.38 290.72L-4.58 260.72L-4.58 200.72zM47.38 350.72L99.34 380.72L99.34 440.72L47.38 470.72L-4.58 440.72L-4.58 380.72zM99.34 620.72L151.31 650.72L151.31 710.72L99.34 740.72L47.38 710.72L47.38 650.72zM47.38 710.72L99.34 740.72L99.34 800.72L47.38 830.72L-4.58 800.72L-4.58 740.72zM99.34 800.72L151.31 830.72L151.31 890.72L99.34 920.72L47.38 890.72L47.38 830.72zM47.38 890.72L99.34 920.72L99.34 980.72L47.38 1010.72L-4.58 980.72L-4.58 920.72zM151.31 170.72L203.27 200.72L203.27 260.72L151.31 290.72L99.34 260.72L99.34 200.72zM203.27 620.72L255.23 650.72L255.23 710.72L203.27 740.72L151.31 710.72L151.31 650.72zM203.27 800.72L255.23 830.72L255.23 890.72L203.27 920.72L151.31 890.72L151.31 830.72zM203.27 980.72L255.23 1010.72L255.23 1070.72L203.27 1100.72L151.31 1070.72L151.31 1010.72zM151.31 1070.72L203.27 1100.72L203.27 1160.72L151.31 1190.72L99.34 1160.72L99.34 1100.72zM255.23 -9.28L307.19 20.72L307.19 80.72L255.23 110.72L203.27 80.72L203.27 20.72zM307.19 260.72L359.16 290.72L359.16 350.72L307.19 380.72L255.23 350.72L255.23 290.72zM307.19 800.72L359.16 830.72L359.16 890.72L307.19 920.72L255.23 890.72L255.23 830.72zM255.23 1070.72L307.19 1100.72L307.19 1160.72L255.23 1190.72L203.27 1160.72L203.27 1100.72zM359.16 -9.28L411.12 20.72L411.12 80.72L359.16 110.72L307.19 80.72L307.19 20.72zM359.16 710.72L411.12 740.72L411.12 800.72L359.16 830.72L307.19 800.72L307.19 740.72zM411.12 980.72L463.08 1010.72L463.08 1070.72L411.12 1100.72L359.16 1070.72L359.16 1010.72zM515.05 260.72L567.01 290.72L567.01 350.72L515.05 380.72L463.08 350.72L463.08 290.72zM515.05 620.72L567.01 650.72L567.01 710.72L515.05 740.72L463.08 710.72L463.08 650.72zM515.05 980.72L567.01 1010.72L567.01 1070.72L515.05 1100.72L463.08 1070.72L463.08 1010.72zM463.08 1070.72L515.05 1100.72L515.05 1160.72L463.08 1190.72L411.12 1160.72L411.12 1100.72zM618.97 620.72L670.94 650.72L670.94 710.72L618.97 740.72L567.01 710.72L567.01 650.72zM722.9 80.72L774.86 110.72L774.86 170.72L722.9 200.72L670.94 170.72L670.94 110.72zM670.94 530.72L722.9 560.72L722.9 620.72L670.94 650.72L618.97 620.72L618.97 560.72zM722.9 620.72L774.86 650.72L774.86 710.72L722.9 740.72L670.94 710.72L670.94 650.72zM670.94 710.72L722.9 740.72L722.9 800.72L670.94 830.72L618.97 800.72L618.97 740.72zM722.9 800.72L774.86 830.72L774.86 890.72L722.9 920.72L670.94 890.72L670.94 830.72zM670.94 890.72L722.9 920.72L722.9 980.72L670.94 1010.72L618.97 980.72L618.97 920.72zM826.82 440.72L878.79 470.72L878.79 530.72L826.82 560.72L774.86 530.72L774.86 470.72zM774.86 530.72L826.82 560.72L826.82 620.72L774.86 650.72L722.9 620.72L722.9 560.72zM774.86 710.72L826.82 740.72L826.82 800.72L774.86 830.72L722.9 800.72L722.9 740.72zM826.82 800.72L878.79 830.72L878.79 890.72L826.82 920.72L774.86 890.72L774.86 830.72zM826.82 980.72L878.79 1010.72L878.79 1070.72L826.82 1100.72L774.86 1070.72L774.86 1010.72zM878.79 -9.28L930.75 20.72L930.75 80.72L878.79 110.72L826.83 80.72L826.83 20.72zM930.75 260.72L982.71 290.72L982.71 350.72L930.75 380.72L878.79 350.72L878.79 290.72zM930.75 440.72L982.71 470.72L982.71 530.72L930.75 560.72L878.79 530.72L878.79 470.72zM930.75 620.72L982.71 650.72L982.71 710.72L930.75 740.72L878.79 710.72L878.79 650.72zM878.79 1070.72L930.75 1100.72L930.75 1160.72L878.79 1190.72L826.83 1160.72L826.83 1100.72zM1034.68 800.72L1086.64 830.72L1086.64 890.72L1034.68 920.72L982.71 890.72L982.71 830.72zM982.71 890.72L1034.68 920.72L1034.68 980.72L982.71 1010.72L930.75 980.72L930.75 920.72zM982.71 1070.72L1034.68 1100.72L1034.68 1160.72L982.71 1190.72L930.75 1160.72L930.75 1100.72zM1086.64 -9.28L1138.6 20.72L1138.6 80.72L1086.64 110.72L1034.68 80.72L1034.68 20.72zM1138.6 80.72L1190.57 110.72L1190.57 170.72L1138.6 200.72L1086.64 170.72L1086.64 110.72zM1086.64 170.72L1138.6 200.72L1138.6 260.72L1086.64 290.72L1034.68 260.72L1034.68 200.72zM1086.64 530.72L1138.6 560.72L1138.6 620.72L1086.64 650.72L1034.68 620.72L1034.68 560.72zM1086.64 1070.72L1138.6 1100.72L1138.6 1160.72L1086.64 1190.72L1034.68 1160.72L1034.68 1100.72zM1242.53 800.72L1294.49 830.72L1294.49 890.72L1242.53 920.72L1190.57 890.72L1190.57 830.72zM1242.53 980.72L1294.49 1010.72L1294.49 1070.72L1242.53 1100.72L1190.57 1070.72L1190.57 1010.72zM1294.49 350.72L1346.46 380.72L1346.46 440.72L1294.49 470.72L1242.53 440.72L1242.53 380.72zM1346.46 620.72L1398.42 650.72L1398.42 710.72L1346.46 740.72L1294.49 710.72L1294.49 650.72zM1346.46 800.72L1398.42 830.72L1398.42 890.72L1346.46 920.72L1294.49 890.72L1294.49 830.72zM1398.42 710.72L1450.38 740.72L1450.38 800.72L1398.42 830.72L1346.46 800.72L1346.46 740.72zM1450.38 980.72L1502.34 1010.72L1502.34 1070.72L1450.38 1100.72L1398.42 1070.72L1398.42 1010.72zM1398.42 1070.72L1450.38 1100.72L1450.38 1160.72L1398.42 1190.72L1346.46 1160.72L1346.46 1100.72zM1554.31 80.72L1606.27 110.72L1606.27 170.72L1554.31 200.72L1502.34 170.72L1502.34 110.72zM1502.34 170.72L1554.31 200.72L1554.31 260.72L1502.34 290.72L1450.38 260.72L1450.38 200.72zM1502.34 350.72L1554.31 380.72L1554.31 440.72L1502.34 470.72L1450.38 440.72L1450.38 380.72zM1554.31 440.72L1606.27 470.72L1606.27 530.72L1554.31 560.72L1502.34 530.72L1502.34 470.72zM1502.34 530.72L1554.31 560.72L1554.31 620.72L1502.34 650.72L1450.38 620.72L1450.38 560.72zM1658.23 80.72L1710.2 110.72L1710.2 170.72L1658.23 200.72L1606.27 170.72L1606.27 110.72zM1606.27 170.72L1658.23 200.72L1658.23 260.72L1606.27 290.72L1554.31 260.72L1554.31 200.72zM1606.27 350.72L1658.23 380.72L1658.23 440.72L1606.27 470.72L1554.31 440.72L1554.31 380.72zM1658.23 620.72L1710.2 650.72L1710.2 710.72L1658.23 740.72L1606.27 710.72L1606.27 650.72zM1658.23 800.72L1710.2 830.72L1710.2 890.72L1658.23 920.72L1606.27 890.72L1606.27 830.72zM1762.16 80.72L1814.12 110.72L1814.12 170.72L1762.16 200.72L1710.2 170.72L1710.2 110.72zM1710.2 350.72L1762.16 380.72L1762.16 440.72L1710.2 470.72L1658.23 440.72L1658.23 380.72zM1814.12 -9.28L1866.09 20.72L1866.09 80.72L1814.12 110.72L1762.16 80.72L1762.16 20.72zM1866.09 80.72L1918.05 110.72L1918.05 170.72L1866.09 200.72L1814.12 170.72L1814.12 110.72zM1814.12 350.72L1866.09 380.72L1866.09 440.72L1814.12 470.72L1762.16 440.72L1762.16 380.72zM1866.09 440.72L1918.05 470.72L1918.05 530.72L1866.09 560.72L1814.12 530.72L1814.12 470.72zM1918.05 350.72L1970.01 380.72L1970.01 440.72L1918.05 470.72L1866.09 440.72L1866.09 380.72zM1918.05 890.72L1970.01 920.72L1970.01 980.72L1918.05 1010.72L1866.09 980.72L1866.09 920.72z" stroke="rgba(9, 48, 9, 0.19)" stroke-width="2"></path><path d="M93.34 80.72 a6 6 0 1 0 12 0 a6 6 0 1 0 -12 0zM145.31 110.72 a6 6 0 1 0 12 0 a6 6 0 1 0 -12 0zM145.31 170.72 a6 6 0 1 0 12 0 a6 6 0 1 0 -12 0zM93.34 200.72 a6 6 0 1 0 12 0 a6 6 0 1 0 -12 0zM41.38 170.72 a6 6 0 1 0 12 0 a6 6 0 1 0 -12 0zM41.38 110.72 a6 6 0 1 0 12 0 a6 6 0 1 0 -12 0zM93.34 260.72 a6 6 0 1 0 12 0 a6 6 0 1 0 -12 0zM41.38 290.72 a6 6 0 1 0 12 0 a6 6 0 1 0 -12 0zM-10.58 260.72 a6 6 0 1 0 12 0 a6 6 0 1 0 -12 0zM-10.58 200.72 a6 6 0 1 0 12 0 a6 6 0 1 0 -12 0zM41.38 350.72 a6 6 0 1 0 12 0 a6 6 0 1 0 -12 0zM93.34 380.72 a6 6 0 1 0 12 0 a6 6 0 1 0 -12 0zM93.34 440.72 a6 6 0 1 0 12 0 a6 6 0 1 0 -12 0zM41.38 470.72 a6 6 0 1 0 12 0 a6 6 0 1 0 -12 0zM-10.58 440.72 a6 6 0 1 0 12 0 a6 6 0 1 0 -12 0zM-10.58 380.72 a6 6 0 1 0 12 0 a6 6 0 1 0 -12 0zM93.34 620.72 a6 6 0 1 0 12 0 a6 6 0 1 0 -12 0zM145.31 650.72 a6 6 0 1 0 12 0 a6 6 0 1 0 -12 0zM145.31 710.72 a6 6 0 1 0 12 0 a6 6 0 1 0 -12 0zM93.34 740.72 a6 6 0 1 0 12 0 a6 6 0 1 0 -12 0zM41.38 710.72 a6 6 0 1 0 12 0 a6 6 0 1 0 -12 0zM41.38 650.72 a6 6 0 1 0 12 0 a6 6 0 1 0 -12 0zM93.34 800.72 a6 6 0 1 0 12 0 a6 6 0 1 0 -12 0zM41.38 830.72 a6 6 0 1 0 12 0 a6 6 0 1 0 -12 0zM-10.58 800.72 a6 6 0 1 0 12 0 a6 6 0 1 0 -12 0zM-10.58 740.72 a6 6 0 1 0 12 0 a6 6 0 1 0 -12 0zM145.31 830.72 a6 6 0 1 0 12 0 a6 6 0 1 0 -12 0zM145.31 890.72 a6 6 0 1 0 12 0 a6 6 0 1 0 -12 0zM93.34 920.72 a6 6 0 1 0 12 0 a6 6 0 1 0 -12 0zM41.38 890.72 a6 6 0 1 0 12 0 a6 6 0 1 0 -12 0zM93.34 980.72 a6 6 0 1 0 12 0 a6 6 0 1 0 -12 0zM41.38 1010.72 a6 6 0 1 0 12 0 a6 6 0 1 0 -12 0zM-10.58 980.72 a6 6 0 1 0 12 0 a6 6 0 1 0 -12 0zM-10.58 920.72 a6 6 0 1 0 12 0 a6 6 0 1 0 -12 0zM197.27 200.72 a6 6 0 1 0 12 0 a6 6 0 1 0 -12 0zM197.27 260.72 a6 6 0 1 0 12 0 a6 6 0 1 0 -12 0zM145.31 290.72 a6 6 0 1 0 12 0 a6 6 0 1 0 -12 0zM197.27 620.72 a6 6 0 1 0 12 0 a6 6 0 1 0 -12 0zM249.23 650.72 a6 6 0 1 0 12 0 a6 6 0 1 0 -12 0zM249.23 710.72 a6 6 0 1 0 12 0 a6 6 0 1 0 -12 0zM197.27 740.72 a6 6 0 1 0 12 0 a6 6 0 1 0 -12 0zM197.27 800.72 a6 6 0 1 0 12 0 a6 6 0 1 0 -12 0zM249.23 830.72 a6 6 0 1 0 12 0 a6 6 0 1 0 -12 0zM249.23 890.72 a6 6 0 1 0 12 0 a6 6 0 1 0 -12 0zM197.27 920.72 a6 6 0 1 0 12 0 a6 6 0 1 0 -12 0zM197.27 980.72 a6 6 0 1 0 12 0 a6 6 0 1 0 -12 0zM249.23 1010.72 a6 6 0 1 0 12 0 a6 6 0 1 0 -12 0zM249.23 1070.72 a6 6 0 1 0 12 0 a6 6 0 1 0 -12 0zM197.27 1100.72 a6 6 0 1 0 12 0 a6 6 0 1 0 -12 0zM145.31 1070.72 a6 6 0 1 0 12 0 a6 6 0 1 0 -12 0zM145.31 1010.72 a6 6 0 1 0 12 0 a6 6 0 1 0 -12 0zM197.27 1160.72 a6 6 0 1 0 12 0 a6 6 0 1 0 -12 0zM145.31 1190.72 a6 6 0 1 0 12 0 a6 6 0 1 0 -12 0zM93.34 1160.72 a6 6 0 1 0 12 0 a6 6 0 1 0 -12 0zM93.34 1100.72 a6 6 0 1 0 12 0 a6 6 0 1 0 -12 0zM249.23 -9.28 a6 6 0 1 0 12 0 a6 6 0 1 0 -12 0zM301.19 20.72 a6 6 0 1 0 12 0 a6 6 0 1 0 -12 0zM301.19 80.72 a6 6 0 1 0 12 0 a6 6 0 1 0 -12 0zM249.23 110.72 a6 6 0 1 0 12 0 a6 6 0 1 0 -12 0zM197.27 80.72 a6 6 0 1 0 12 0 a6 6 0 1 0 -12 0zM197.27 20.72 a6 6 0 1 0 12 0 a6 6 0 1 0 -12 0zM301.19 260.72 a6 6 0 1 0 12 0 a6 6 0 1 0 -12 0zM353.16 290.72 a6 6 0 1 0 12 0 a6 6 0 1 0 -12 0zM353.16 350.72 a6 6 0 1 0 12 0 a6 6 0 1 0 -12 0zM301.19 380.72 a6 6 0 1 0 12 0 a6 6 0 1 0 -12 0zM249.23 350.72 a6 6 0 1 0 12 0 a6 6 0 1 0 -12 0zM249.23 290.72 a6 6 0 1 0 12 0 a6 6 0 1 0 -12 0zM301.19 800.72 a6 6 0 1 0 12 0 a6 6 0 1 0 -12 0zM353.16 830.72 a6 6 0 1 0 12 0 a6 6 0 1 0 -12 0zM353.16 890.72 a6 6 0 1 0 12 0 a6 6 0 1 0 -12 0zM301.19 920.72 a6 6 0 1 0 12 0 a6 6 0 1 0 -12 0zM301.19 1100.72 a6 6 0 1 0 12 0 a6 6 0 1 0 -12 0zM301.19 1160.72 a6 6 0 1 0 12 0 a6 6 0 1 0 -12 0zM249.23 1190.72 a6 6 0 1 0 12 0 a6 6 0 1 0 -12 0zM353.16 -9.28 a6 6 0 1 0 12 0 a6 6 0 1 0 -12 0zM405.12 20.72 a6 6 0 1 0 12 0 a6 6 0 1 0 -12 0zM405.12 80.72 a6 6 0 1 0 12 0 a6 6 0 1 0 -12 0zM353.16 110.72 a6 6 0 1 0 12 0 a6 6 0 1 0 -12 0zM353.16 710.72 a6 6 0 1 0 12 0 a6 6 0 1 0 -12 0zM405.12 740.72 a6 6 0 1 0 12 0 a6 6 0 1 0 -12 0zM405.12 800.72 a6 6 0 1 0 12 0 a6 6 0 1 0 -12 0zM301.19 740.72 a6 6 0 1 0 12 0 a6 6 0 1 0 -12 0zM405.12 980.72 a6 6 0 1 0 12 0 a6 6 0 1 0 -12 0zM457.08 1010.72 a6 6 0 1 0 12 0 a6 6 0 1 0 -12 0zM457.08 1070.72 a6 6 0 1 0 12 0 a6 6 0 1 0 -12 0zM405.12 1100.72 a6 6 0 1 0 12 0 a6 6 0 1 0 -12 0zM353.16 1070.72 a6 6 0 1 0 12 0 a6 6 0 1 0 -12 0zM353.16 1010.72 a6 6 0 1 0 12 0 a6 6 0 1 0 -12 0zM509.05 260.72 a6 6 0 1 0 12 0 a6 6 0 1 0 -12 0zM561.01 290.72 a6 6 0 1 0 12 0 a6 6 0 1 0 -12 0zM561.01 350.72 a6 6 0 1 0 12 0 a6 6 0 1 0 -12 0zM509.05 380.72 a6 6 0 1 0 12 0 a6 6 0 1 0 -12 0zM457.08 350.72 a6 6 0 1 0 12 0 a6 6 0 1 0 -12 0zM457.08 290.72 a6 6 0 1 0 12 0 a6 6 0 1 0 -12 0zM509.05 620.72 a6 6 0 1 0 12 0 a6 6 0 1 0 -12 0zM561.01 650.72 a6 6 0 1 0 12 0 a6 6 0 1 0 -12 0zM561.01 710.72 a6 6 0 1 0 12 0 a6 6 0 1 0 -12 0zM509.05 740.72 a6 6 0 1 0 12 0 a6 6 0 1 0 -12 0zM457.08 710.72 a6 6 0 1 0 12 0 a6 6 0 1 0 -12 0zM457.08 650.72 a6 6 0 1 0 12 0 a6 6 0 1 0 -12 0zM509.05 980.72 a6 6 0 1 0 12 0 a6 6 0 1 0 -12 0zM561.01 1010.72 a6 6 0 1 0 12 0 a6 6 0 1 0 -12 0zM561.01 1070.72 a6 6 0 1 0 12 0 a6 6 0 1 0 -12 0zM509.05 1100.72 a6 6 0 1 0 12 0 a6 6 0 1 0 -12 0zM509.05 1160.72 a6 6 0 1 0 12 0 a6 6 0 1 0 -12 0zM457.08 1190.72 a6 6 0 1 0 12 0 a6 6 0 1 0 -12 0zM405.12 1160.72 a6 6 0 1 0 12 0 a6 6 0 1 0 -12 0zM612.97 620.72 a6 6 0 1 0 12 0 a6 6 0 1 0 -12 0zM664.94 650.72 a6 6 0 1 0 12 0 a6 6 0 1 0 -12 0zM664.94 710.72 a6 6 0 1 0 12 0 a6 6 0 1 0 -12 0zM612.97 740.72 a6 6 0 1 0 12 0 a6 6 0 1 0 -12 0zM716.9 80.72 a6 6 0 1 0 12 0 a6 6 0 1 0 -12 0zM768.86 110.72 a6 6 0 1 0 12 0 a6 6 0 1 0 -12 0zM768.86 170.72 a6 6 0 1 0 12 0 a6 6 0 1 0 -12 0zM716.9 200.72 a6 6 0 1 0 12 0 a6 6 0 1 0 -12 0zM664.94 170.72 a6 6 0 1 0 12 0 a6 6 0 1 0 -12 0zM664.94 110.72 a6 6 0 1 0 12 0 a6 6 0 1 0 -12 0zM664.94 530.72 a6 6 0 1 0 12 0 a6 6 0 1 0 -12 0zM716.9 560.72 a6 6 0 1 0 12 0 a6 6 0 1 0 -12 0zM716.9 620.72 a6 6 0 1 0 12 0 a6 6 0 1 0 -12 0zM612.97 560.72 a6 6 0 1 0 12 0 a6 6 0 1 0 -12 0zM768.86 650.72 a6 6 0 1 0 12 0 a6 6 0 1 0 -12 0zM768.86 710.72 a6 6 0 1 0 12 0 a6 6 0 1 0 -12 0zM716.9 740.72 a6 6 0 1 0 12 0 a6 6 0 1 0 -12 0zM716.9 800.72 a6 6 0 1 0 12 0 a6 6 0 1 0 -12 0zM664.94 830.72 a6 6 0 1 0 12 0 a6 6 0 1 0 -12 0zM612.97 800.72 a6 6 0 1 0 12 0 a6 6 0 1 0 -12 0zM768.86 830.72 a6 6 0 1 0 12 0 a6 6 0 1 0 -12 0zM768.86 890.72 a6 6 0 1 0 12 0 a6 6 0 1 0 -12 0zM716.9 920.72 a6 6 0 1 0 12 0 a6 6 0 1 0 -12 0zM664.94 890.72 a6 6 0 1 0 12 0 a6 6 0 1 0 -12 0zM716.9 980.72 a6 6 0 1 0 12 0 a6 6 0 1 0 -12 0zM664.94 1010.72 a6 6 0 1 0 12 0 a6 6 0 1 0 -12 0zM612.97 980.72 a6 6 0 1 0 12 0 a6 6 0 1 0 -12 0zM612.97 920.72 a6 6 0 1 0 12 0 a6 6 0 1 0 -12 0zM820.82 440.72 a6 6 0 1 0 12 0 a6 6 0 1 0 -12 0zM872.79 470.72 a6 6 0 1 0 12 0 a6 6 0 1 0 -12 0zM872.79 530.72 a6 6 0 1 0 12 0 a6 6 0 1 0 -12 0zM820.82 560.72 a6 6 0 1 0 12 0 a6 6 0 1 0 -12 0zM768.86 530.72 a6 6 0 1 0 12 0 a6 6 0 1 0 -12 0zM768.86 470.72 a6 6 0 1 0 12 0 a6 6 0 1 0 -12 0zM820.82 620.72 a6 6 0 1 0 12 0 a6 6 0 1 0 -12 0zM820.82 740.72 a6 6 0 1 0 12 0 a6 6 0 1 0 -12 0zM820.82 800.72 a6 6 0 1 0 12 0 a6 6 0 1 0 -12 0zM872.79 830.72 a6 6 0 1 0 12 0 a6 6 0 1 0 -12 0zM872.79 890.72 a6 6 0 1 0 12 0 a6 6 0 1 0 -12 0zM820.82 920.72 a6 6 0 1 0 12 0 a6 6 0 1 0 -12 0zM820.82 980.72 a6 6 0 1 0 12 0 a6 6 0 1 0 -12 0zM872.79 1010.72 a6 6 0 1 0 12 0 a6 6 0 1 0 -12 0zM872.79 1070.72 a6 6 0 1 0 12 0 a6 6 0 1 0 -12 0zM820.82 1100.72 a6 6 0 1 0 12 0 a6 6 0 1 0 -12 0zM768.86 1070.72 a6 6 0 1 0 12 0 a6 6 0 1 0 -12 0zM768.86 1010.72 a6 6 0 1 0 12 0 a6 6 0 1 0 -12 0zM872.79 -9.28 a6 6 0 1 0 12 0 a6 6 0 1 0 -12 0zM924.75 20.72 a6 6 0 1 0 12 0 a6 6 0 1 0 -12 0zM924.75 80.72 a6 6 0 1 0 12 0 a6 6 0 1 0 -12 0zM872.79 110.72 a6 6 0 1 0 12 0 a6 6 0 1 0 -12 0zM820.83 80.72 a6 6 0 1 0 12 0 a6 6 0 1 0 -12 0zM820.83 20.72 a6 6 0 1 0 12 0 a6 6 0 1 0 -12 0zM924.75 260.72 a6 6 0 1 0 12 0 a6 6 0 1 0 -12 0zM976.71 290.72 a6 6 0 1 0 12 0 a6 6 0 1 0 -12 0zM976.71 350.72 a6 6 0 1 0 12 0 a6 6 0 1 0 -12 0zM924.75 380.72 a6 6 0 1 0 12 0 a6 6 0 1 0 -12 0zM872.79 350.72 a6 6 0 1 0 12 0 a6 6 0 1 0 -12 0zM872.79 290.72 a6 6 0 1 0 12 0 a6 6 0 1 0 -12 0zM924.75 440.72 a6 6 0 1 0 12 0 a6 6 0 1 0 -12 0zM976.71 470.72 a6 6 0 1 0 12 0 a6 6 0 1 0 -12 0zM976.71 530.72 a6 6 0 1 0 12 0 a6 6 0 1 0 -12 0zM924.75 560.72 a6 6 0 1 0 12 0 a6 6 0 1 0 -12 0zM924.75 620.72 a6 6 0 1 0 12 0 a6 6 0 1 0 -12 0zM976.71 650.72 a6 6 0 1 0 12 0 a6 6 0 1 0 -12 0zM976.71 710.72 a6 6 0 1 0 12 0 a6 6 0 1 0 -12 0zM924.75 740.72 a6 6 0 1 0 12 0 a6 6 0 1 0 -12 0zM872.79 710.72 a6 6 0 1 0 12 0 a6 6 0 1 0 -12 0zM872.79 650.72 a6 6 0 1 0 12 0 a6 6 0 1 0 -12 0zM924.75 1100.72 a6 6 0 1 0 12 0 a6 6 0 1 0 -12 0zM924.75 1160.72 a6 6 0 1 0 12 0 a6 6 0 1 0 -12 0zM872.79 1190.72 a6 6 0 1 0 12 0 a6 6 0 1 0 -12 0zM820.83 1160.72 a6 6 0 1 0 12 0 a6 6 0 1 0 -12 0zM820.83 1100.72 a6 6 0 1 0 12 0 a6 6 0 1 0 -12 0zM1028.68 800.72 a6 6 0 1 0 12 0 a6 6 0 1 0 -12 0zM1080.64 830.72 a6 6 0 1 0 12 0 a6 6 0 1 0 -12 0zM1080.64 890.72 a6 6 0 1 0 12 0 a6 6 0 1 0 -12 0zM1028.68 920.72 a6 6 0 1 0 12 0 a6 6 0 1 0 -12 0zM976.71 890.72 a6 6 0 1 0 12 0 a6 6 0 1 0 -12 0zM976.71 830.72 a6 6 0 1 0 12 0 a6 6 0 1 0 -12 0zM1028.68 980.72 a6 6 0 1 0 12 0 a6 6 0 1 0 -12 0zM976.71 1010.72 a6 6 0 1 0 12 0 a6 6 0 1 0 -12 0zM924.75 980.72 a6 6 0 1 0 12 0 a6 6 0 1 0 -12 0zM924.75 920.72 a6 6 0 1 0 12 0 a6 6 0 1 0 -12 0zM976.71 1070.72 a6 6 0 1 0 12 0 a6 6 0 1 0 -12 0zM1028.68 1100.72 a6 6 0 1 0 12 0 a6 6 0 1 0 -12 0zM1028.68 1160.72 a6 6 0 1 0 12 0 a6 6 0 1 0 -12 0zM976.71 1190.72 a6 6 0 1 0 12 0 a6 6 0 1 0 -12 0zM1080.64 -9.28 a6 6 0 1 0 12 0 a6 6 0 1 0 -12 0zM1132.6 20.72 a6 6 0 1 0 12 0 a6 6 0 1 0 -12 0zM1132.6 80.72 a6 6 0 1 0 12 0 a6 6 0 1 0 -12 0zM1080.64 110.72 a6 6 0 1 0 12 0 a6 6 0 1 0 -12 0zM1028.68 80.72 a6 6 0 1 0 12 0 a6 6 0 1 0 -12 0zM1028.68 20.72 a6 6 0 1 0 12 0 a6 6 0 1 0 -12 0zM1184.57 110.72 a6 6 0 1 0 12 0 a6 6 0 1 0 -12 0zM1184.57 170.72 a6 6 0 1 0 12 0 a6 6 0 1 0 -12 0zM1132.6 200.72 a6 6 0 1 0 12 0 a6 6 0 1 0 -12 0zM1080.64 170.72 a6 6 0 1 0 12 0 a6 6 0 1 0 -12 0zM1132.6 260.72 a6 6 0 1 0 12 0 a6 6 0 1 0 -12 0zM1080.64 290.72 a6 6 0 1 0 12 0 a6 6 0 1 0 -12 0zM1028.68 260.72 a6 6 0 1 0 12 0 a6 6 0 1 0 -12 0zM1028.68 200.72 a6 6 0 1 0 12 0 a6 6 0 1 0 -12 0zM1080.64 530.72 a6 6 0 1 0 12 0 a6 6 0 1 0 -12 0zM1132.6 560.72 a6 6 0 1 0 12 0 a6 6 0 1 0 -12 0zM1132.6 620.72 a6 6 0 1 0 12 0 a6 6 0 1 0 -12 0zM1080.64 650.72 a6 6 0 1 0 12 0 a6 6 0 1 0 -12 0zM1028.68 620.72 a6 6 0 1 0 12 0 a6 6 0 1 0 -12 0zM1028.68 560.72 a6 6 0 1 0 12 0 a6 6 0 1 0 -12 0zM1080.64 1070.72 a6 6 0 1 0 12 0 a6 6 0 1 0 -12 0zM1132.6 1100.72 a6 6 0 1 0 12 0 a6 6 0 1 0 -12 0zM1132.6 1160.72 a6 6 0 1 0 12 0 a6 6 0 1 0 -12 0zM1080.64 1190.72 a6 6 0 1 0 12 0 a6 6 0 1 0 -12 0zM1236.53 800.72 a6 6 0 1 0 12 0 a6 6 0 1 0 -12 0zM1288.49 830.72 a6 6 0 1 0 12 0 a6 6 0 1 0 -12 0zM1288.49 890.72 a6 6 0 1 0 12 0 a6 6 0 1 0 -12 0zM1236.53 920.72 a6 6 0 1 0 12 0 a6 6 0 1 0 -12 0zM1184.57 890.72 a6 6 0 1 0 12 0 a6 6 0 1 0 -12 0zM1184.57 830.72 a6 6 0 1 0 12 0 a6 6 0 1 0 -12 0zM1236.53 980.72 a6 6 0 1 0 12 0 a6 6 0 1 0 -12 0zM1288.49 1010.72 a6 6 0 1 0 12 0 a6 6 0 1 0 -12 0zM1288.49 1070.72 a6 6 0 1 0 12 0 a6 6 0 1 0 -12 0zM1236.53 1100.72 a6 6 0 1 0 12 0 a6 6 0 1 0 -12 0zM1184.57 1070.72 a6 6 0 1 0 12 0 a6 6 0 1 0 -12 0zM1184.57 1010.72 a6 6 0 1 0 12 0 a6 6 0 1 0 -12 0zM1288.49 350.72 a6 6 0 1 0 12 0 a6 6 0 1 0 -12 0zM1340.46 380.72 a6 6 0 1 0 12 0 a6 6 0 1 0 -12 0zM1340.46 440.72 a6 6 0 1 0 12 0 a6 6 0 1 0 -12 0zM1288.49 470.72 a6 6 0 1 0 12 0 a6 6 0 1 0 -12 0zM1236.53 440.72 a6 6 0 1 0 12 0 a6 6 0 1 0 -12 0zM1236.53 380.72 a6 6 0 1 0 12 0 a6 6 0 1 0 -12 0zM1340.46 620.72 a6 6 0 1 0 12 0 a6 6 0 1 0 -12 0zM1392.42 650.72 a6 6 0 1 0 12 0 a6 6 0 1 0 -12 0zM1392.42 710.72 a6 6 0 1 0 12 0 a6 6 0 1 0 -12 0zM1340.46 740.72 a6 6 0 1 0 12 0 a6 6 0 1 0 -12 0zM1288.49 710.72 a6 6 0 1 0 12 0 a6 6 0 1 0 -12 0zM1288.49 650.72 a6 6 0 1 0 12 0 a6 6 0 1 0 -12 0zM1340.46 800.72 a6 6 0 1 0 12 0 a6 6 0 1 0 -12 0zM1392.42 830.72 a6 6 0 1 0 12 0 a6 6 0 1 0 -12 0zM1392.42 890.72 a6 6 0 1 0 12 0 a6 6 0 1 0 -12 0zM1340.46 920.72 a6 6 0 1 0 12 0 a6 6 0 1 0 -12 0zM1444.38 740.72 a6 6 0 1 0 12 0 a6 6 0 1 0 -12 0zM1444.38 800.72 a6 6 0 1 0 12 0 a6 6 0 1 0 -12 0zM1444.38 980.72 a6 6 0 1 0 12 0 a6 6 0 1 0 -12 0zM1496.34 1010.72 a6 6 0 1 0 12 0 a6 6 0 1 0 -12 0zM1496.34 1070.72 a6 6 0 1 0 12 0 a6 6 0 1 0 -12 0zM1444.38 1100.72 a6 6 0 1 0 12 0 a6 6 0 1 0 -12 0zM1392.42 1070.72 a6 6 0 1 0 12 0 a6 6 0 1 0 -12 0zM1392.42 1010.72 a6 6 0 1 0 12 0 a6 6 0 1 0 -12 0zM1444.38 1160.72 a6 6 0 1 0 12 0 a6 6 0 1 0 -12 0zM1392.42 1190.72 a6 6 0 1 0 12 0 a6 6 0 1 0 -12 0zM1340.46 1160.72 a6 6 0 1 0 12 0 a6 6 0 1 0 -12 0zM1340.46 1100.72 a6 6 0 1 0 12 0 a6 6 0 1 0 -12 0zM1548.31 80.72 a6 6 0 1 0 12 0 a6 6 0 1 0 -12 0zM1600.27 110.72 a6 6 0 1 0 12 0 a6 6 0 1 0 -12 0zM1600.27 170.72 a6 6 0 1 0 12 0 a6 6 0 1 0 -12 0zM1548.31 200.72 a6 6 0 1 0 12 0 a6 6 0 1 0 -12 0zM1496.34 170.72 a6 6 0 1 0 12 0 a6 6 0 1 0 -12 0zM1496.34 110.72 a6 6 0 1 0 12 0 a6 6 0 1 0 -12 0zM1548.31 260.72 a6 6 0 1 0 12 0 a6 6 0 1 0 -12 0zM1496.34 290.72 a6 6 0 1 0 12 0 a6 6 0 1 0 -12 0zM1444.38 260.72 a6 6 0 1 0 12 0 a6 6 0 1 0 -12 0zM1444.38 200.72 a6 6 0 1 0 12 0 a6 6 0 1 0 -12 0zM1496.34 350.72 a6 6 0 1 0 12 0 a6 6 0 1 0 -12 0zM1548.31 380.72 a6 6 0 1 0 12 0 a6 6 0 1 0 -12 0zM1548.31 440.72 a6 6 0 1 0 12 0 a6 6 0 1 0 -12 0zM1496.34 470.72 a6 6 0 1 0 12 0 a6 6 0 1 0 -12 0zM1444.38 440.72 a6 6 0 1 0 12 0 a6 6 0 1 0 -12 0zM1444.38 380.72 a6 6 0 1 0 12 0 a6 6 0 1 0 -12 0zM1600.27 470.72 a6 6 0 1 0 12 0 a6 6 0 1 0 -12 0zM1600.27 530.72 a6 6 0 1 0 12 0 a6 6 0 1 0 -12 0zM1548.31 560.72 a6 6 0 1 0 12 0 a6 6 0 1 0 -12 0zM1496.34 530.72 a6 6 0 1 0 12 0 a6 6 0 1 0 -12 0zM1548.31 620.72 a6 6 0 1 0 12 0 a6 6 0 1 0 -12 0zM1496.34 650.72 a6 6 0 1 0 12 0 a6 6 0 1 0 -12 0zM1444.38 620.72 a6 6 0 1 0 12 0 a6 6 0 1 0 -12 0zM1444.38 560.72 a6 6 0 1 0 12 0 a6 6 0 1 0 -12 0zM1652.23 80.72 a6 6 0 1 0 12 0 a6 6 0 1 0 -12 0zM1704.2 110.72 a6 6 0 1 0 12 0 a6 6 0 1 0 -12 0zM1704.2 170.72 a6 6 0 1 0 12 0 a6 6 0 1 0 -12 0zM1652.23 200.72 a6 6 0 1 0 12 0 a6 6 0 1 0 -12 0zM1652.23 260.72 a6 6 0 1 0 12 0 a6 6 0 1 0 -12 0zM1600.27 290.72 a6 6 0 1 0 12 0 a6 6 0 1 0 -12 0zM1600.27 350.72 a6 6 0 1 0 12 0 a6 6 0 1 0 -12 0zM1652.23 380.72 a6 6 0 1 0 12 0 a6 6 0 1 0 -12 0zM1652.23 440.72 a6 6 0 1 0 12 0 a6 6 0 1 0 -12 0zM1652.23 620.72 a6 6 0 1 0 12 0 a6 6 0 1 0 -12 0zM1704.2 650.72 a6 6 0 1 0 12 0 a6 6 0 1 0 -12 0zM1704.2 710.72 a6 6 0 1 0 12 0 a6 6 0 1 0 -12 0zM1652.23 740.72 a6 6 0 1 0 12 0 a6 6 0 1 0 -12 0zM1600.27 710.72 a6 6 0 1 0 12 0 a6 6 0 1 0 -12 0zM1600.27 650.72 a6 6 0 1 0 12 0 a6 6 0 1 0 -12 0zM1652.23 800.72 a6 6 0 1 0 12 0 a6 6 0 1 0 -12 0zM1704.2 830.72 a6 6 0 1 0 12 0 a6 6 0 1 0 -12 0zM1704.2 890.72 a6 6 0 1 0 12 0 a6 6 0 1 0 -12 0zM1652.23 920.72 a6 6 0 1 0 12 0 a6 6 0 1 0 -12 0zM1600.27 890.72 a6 6 0 1 0 12 0 a6 6 0 1 0 -12 0zM1600.27 830.72 a6 6 0 1 0 12 0 a6 6 0 1 0 -12 0zM1756.16 80.72 a6 6 0 1 0 12 0 a6 6 0 1 0 -12 0zM1808.12 110.72 a6 6 0 1 0 12 0 a6 6 0 1 0 -12 0zM1808.12 170.72 a6 6 0 1 0 12 0 a6 6 0 1 0 -12 0zM1756.16 200.72 a6 6 0 1 0 12 0 a6 6 0 1 0 -12 0zM1704.2 350.72 a6 6 0 1 0 12 0 a6 6 0 1 0 -12 0zM1756.16 380.72 a6 6 0 1 0 12 0 a6 6 0 1 0 -12 0zM1756.16 440.72 a6 6 0 1 0 12 0 a6 6 0 1 0 -12 0zM1704.2 470.72 a6 6 0 1 0 12 0 a6 6 0 1 0 -12 0zM1808.12 -9.28 a6 6 0 1 0 12 0 a6 6 0 1 0 -12 0zM1860.09 20.72 a6 6 0 1 0 12 0 a6 6 0 1 0 -12 0zM1860.09 80.72 a6 6 0 1 0 12 0 a6 6 0 1 0 -12 0zM1756.16 20.72 a6 6 0 1 0 12 0 a6 6 0 1 0 -12 0zM1912.05 110.72 a6 6 0 1 0 12 0 a6 6 0 1 0 -12 0zM1912.05 170.72 a6 6 0 1 0 12 0 a6 6 0 1 0 -12 0zM1860.09 200.72 a6 6 0 1 0 12 0 a6 6 0 1 0 -12 0zM1808.12 350.72 a6 6 0 1 0 12 0 a6 6 0 1 0 -12 0zM1860.09 380.72 a6 6 0 1 0 12 0 a6 6 0 1 0 -12 0zM1860.09 440.72 a6 6 0 1 0 12 0 a6 6 0 1 0 -12 0zM1808.12 470.72 a6 6 0 1 0 12 0 a6 6 0 1 0 -12 0zM1912.05 470.72 a6 6 0 1 0 12 0 a6 6 0 1 0 -12 0zM1912.05 530.72 a6 6 0 1 0 12 0 a6 6 0 1 0 -12 0zM1860.09 560.72 a6 6 0 1 0 12 0 a6 6 0 1 0 -12 0zM1808.12 530.72 a6 6 0 1 0 12 0 a6 6 0 1 0 -12 0zM1912.05 350.72 a6 6 0 1 0 12 0 a6 6 0 1 0 -12 0zM1964.01 380.72 a6 6 0 1 0 12 0 a6 6 0 1 0 -12 0zM1964.01 440.72 a6 6 0 1 0 12 0 a6 6 0 1 0 -12 0zM1912.05 890.72 a6 6 0 1 0 12 0 a6 6 0 1 0 -12 0zM1964.01 920.72 a6 6 0 1 0 12 0 a6 6 0 1 0 -12 0zM1964.01 980.72 a6 6 0 1 0 12 0 a6 6 0 1 0 -12 0zM1912.05 1010.72 a6 6 0 1 0 12 0 a6 6 0 1 0 -12 0zM1860.09 980.72 a6 6 0 1 0 12 0 a6 6 0 1 0 -12 0zM1860.09 920.72 a6 6 0 1 0 12 0 a6 6 0 1 0 -12 0z" fill="rgba(9, 48, 9, 0.19)"></path><path d="M160.69 377.5L250.76 429.5L250.76 533.5L160.69 585.5L70.62 533.5L70.62 429.5zM250.76 221.5L340.83 273.5L340.83 377.5L250.76 429.5L160.69 377.5L160.69 273.5zM250.76 533.5L340.83 585.5L340.83 689.5L250.76 741.5L160.69 689.5L160.69 585.5zM701.1 377.5L791.17 429.5L791.17 533.5L701.1 585.5L611.04 533.5L611.04 429.5zM611.04 845.5L701.1 897.5L701.1 1001.5L611.04 1053.5L520.97 1001.5L520.97 897.5zM881.24 689.5L971.31 741.5L971.31 845.5L881.24 897.5L791.17 845.5L791.17 741.5zM881.24 1001.5L971.31 1053.5L971.31 1157.5L881.24 1209.5L791.17 1157.5L791.17 1053.5zM971.31 533.5L1061.38 585.5L1061.38 689.5L971.31 741.5L881.24 689.5L881.24 585.5zM1061.38 689.5L1151.45 741.5L1151.45 845.5L1061.38 897.5L971.31 845.5L971.31 741.5zM971.31 845.5L1061.38 897.5L1061.38 1001.5L971.31 1053.5L881.24 1001.5L881.24 897.5zM1241.52 65.5L1331.59 117.5L1331.59 221.5L1241.52 273.5L1151.45 221.5L1151.45 117.5zM1151.45 221.5L1241.52 273.5L1241.52 377.5L1151.45 429.5L1061.38 377.5L1061.38 273.5zM1331.59 -90.5L1421.66 -38.5L1421.66 65.5L1331.59 117.5L1241.52 65.5L1241.52 -38.5zM1331.59 221.5L1421.66 273.5L1421.66 377.5L1331.59 429.5L1241.52 377.5L1241.52 273.5zM1421.66 377.5L1511.73 429.5L1511.73 533.5L1421.66 585.5L1331.59 533.5L1331.59 429.5zM1421.66 689.5L1511.73 741.5L1511.73 845.5L1421.66 897.5L1331.59 845.5L1331.59 741.5zM1421.66 1001.5L1511.73 1053.5L1511.73 1157.5L1421.66 1209.5L1331.59 1157.5L1331.59 1053.5zM1511.73 221.5L1601.8 273.5L1601.8 377.5L1511.73 429.5L1421.66 377.5L1421.66 273.5zM1601.8 377.5L1691.87 429.5L1691.87 533.5L1601.8 585.5L1511.73 533.5L1511.73 429.5zM1601.8 1001.5L1691.87 1053.5L1691.87 1157.5L1601.8 1209.5L1511.73 1157.5L1511.73 1053.5zM1691.87 221.5L1781.93 273.5L1781.93 377.5L1691.87 429.5L1601.8 377.5L1601.8 273.5zM1872 221.5L1962.07 273.5L1962.07 377.5L1872 429.5L1781.93 377.5L1781.93 273.5zM1962.07 377.5L2052.14 429.5L2052.14 533.5L1962.07 585.5L1872 533.5L1872 429.5zM1962.07 689.5L2052.14 741.5L2052.14 845.5L1962.07 897.5L1872 845.5L1872 741.5zM1872 845.5L1962.07 897.5L1962.07 1001.5L1872 1053.5L1781.93 1001.5L1781.93 897.5zM1962.07 1001.5L2052.14 1053.5L2052.14 1157.5L1962.07 1209.5L1872 1157.5L1872 1053.5z" stroke="rgba(9, 48, 9, 0.56)" stroke-width="2"></path></g><defs><mask id="SvgjsMask3998"><rect width="1920" height="1080" fill="#ffffff"></rect></mask><linearGradient x1="10.94%" y1="119.44%" x2="89.06%" y2="-19.44%" gradientUnits="userSpaceOnUse" id="SvgjsLinearGradient3999"><stop stop-color="rgba(3, 22, 2, 1)" offset="0"></stop><stop stop-color="rgba(13, 30, 9, 1)" offset="1"></stop></linearGradient></defs></svg>