<svg xmlns="http://www.w3.org/2000/svg" version="1.1" xmlns:xlink="http://www.w3.org/1999/xlink" xmlns:svgjs="http://svgjs.com/svgjs" width="1920" height="1080" preserveAspectRatio="none" viewBox="0 0 1920 1080"><g mask="url(&quot;#SvgjsMask4156&quot;)" fill="none"><rect width="1920" height="1080" x="0" y="0" fill="url(#SvgjsLinearGradient4157)"></rect><path d="M96.52 590.37L148.49 620.37L148.49 680.37L96.52 710.37L44.56 680.37L44.56 620.37zM148.49 -39.63L200.45 -9.63L200.45 50.37L148.49 80.37L96.52 50.37L96.52 -9.63zM200.45 230.37L252.41 260.37L252.41 320.37L200.45 350.37L148.49 320.37L148.49 260.37zM148.49 500.37L200.45 530.37L200.45 590.37L148.49 620.37L96.52 590.37L96.52 530.37zM200.45 590.37L252.41 620.37L252.41 680.37L200.45 710.37L148.49 680.37L148.49 620.37zM148.49 680.37L200.45 710.37L200.45 770.37L148.49 800.37L96.52 770.37L96.52 710.37zM148.49 860.37L200.45 890.37L200.45 950.37L148.49 980.37L96.52 950.37L96.52 890.37zM200.45 950.37L252.41 980.37L252.41 1040.37L200.45 1070.37L148.49 1040.37L148.49 980.37zM252.41 140.37L304.38 170.37L304.38 230.37L252.41 260.37L200.45 230.37L200.45 170.37zM408.3 770.37L460.26 800.37L460.26 860.37L408.3 890.37L356.34 860.37L356.34 800.37zM512.23 590.37L564.19 620.37L564.19 680.37L512.23 710.37L460.26 680.37L460.26 620.37zM512.23 770.37L564.19 800.37L564.19 860.37L512.23 890.37L460.26 860.37L460.26 800.37zM460.26 1040.37L512.23 1070.37L512.23 1130.37L460.26 1160.37L408.3 1130.37L408.3 1070.37zM564.19 860.37L616.15 890.37L616.15 950.37L564.19 980.37L512.23 950.37L512.23 890.37zM668.12 140.37L720.08 170.37L720.08 230.37L668.12 260.37L616.15 230.37L616.15 170.37zM668.12 680.37L720.08 710.37L720.08 770.37L668.12 800.37L616.15 770.37L616.15 710.37zM772.04 -39.63L824 -9.63L824 50.37L772.04 80.37L720.08 50.37L720.08 -9.63zM772.04 140.37L824 170.37L824 230.37L772.04 260.37L720.08 230.37L720.08 170.37zM824 770.37L875.97 800.37L875.97 860.37L824 890.37L772.04 860.37L772.04 800.37zM772.04 860.37L824 890.37L824 950.37L772.04 980.37L720.08 950.37L720.08 890.37zM875.97 680.37L927.93 710.37L927.93 770.37L875.97 800.37L824.01 770.37L824.01 710.37zM979.89 -39.63L1031.86 -9.63L1031.86 50.37L979.89 80.37L927.93 50.37L927.93 -9.63zM1031.86 410.37L1083.82 440.37L1083.82 500.37L1031.86 530.37L979.89 500.37L979.89 440.37zM979.89 500.37L1031.86 530.37L1031.86 590.37L979.89 620.37L927.93 590.37L927.93 530.37zM1031.86 590.37L1083.82 620.37L1083.82 680.37L1031.86 710.37L979.89 680.37L979.89 620.37zM1031.86 950.37L1083.82 980.37L1083.82 1040.37L1031.86 1070.37L979.89 1040.37L979.89 980.37zM1083.82 320.37L1135.78 350.37L1135.78 410.37L1083.82 440.37L1031.86 410.37L1031.86 350.37zM1135.78 410.37L1187.75 440.37L1187.75 500.37L1135.78 530.37L1083.82 500.37L1083.82 440.37zM1187.75 140.37L1239.71 170.37L1239.71 230.37L1187.75 260.37L1135.78 230.37L1135.78 170.37zM1291.67 140.37L1343.63 170.37L1343.63 230.37L1291.67 260.37L1239.71 230.37L1239.71 170.37zM1343.63 230.37L1395.6 260.37L1395.6 320.37L1343.63 350.37L1291.67 320.37L1291.67 260.37zM1343.63 590.37L1395.6 620.37L1395.6 680.37L1343.63 710.37L1291.67 680.37L1291.67 620.37zM1447.56 230.37L1499.52 260.37L1499.52 320.37L1447.56 350.37L1395.6 320.37L1395.6 260.37zM1447.56 410.37L1499.52 440.37L1499.52 500.37L1447.56 530.37L1395.6 500.37L1395.6 440.37zM1499.52 140.37L1551.49 170.37L1551.49 230.37L1499.52 260.37L1447.56 230.37L1447.56 170.37zM1551.49 230.37L1603.45 260.37L1603.45 320.37L1551.49 350.37L1499.52 320.37L1499.52 260.37zM1551.49 410.37L1603.45 440.37L1603.45 500.37L1551.49 530.37L1499.52 500.37L1499.52 440.37zM1499.52 860.37L1551.49 890.37L1551.49 950.37L1499.52 980.37L1447.56 950.37L1447.56 890.37zM1759.34 50.37L1811.3 80.37L1811.3 140.37L1759.34 170.37L1707.38 140.37L1707.38 80.37zM1759.34 770.37L1811.3 800.37L1811.3 860.37L1759.34 890.37L1707.38 860.37L1707.38 800.37zM1863.26 770.37L1915.23 800.37L1915.23 860.37L1863.26 890.37L1811.3 860.37L1811.3 800.37zM1967.19 410.37L2019.15 440.37L2019.15 500.37L1967.19 530.37L1915.23 500.37L1915.23 440.37zM1967.19 590.37L2019.15 620.37L2019.15 680.37L1967.19 710.37L1915.23 680.37L1915.23 620.37zM1915.23 680.37L1967.19 710.37L1967.19 770.37L1915.23 800.37L1863.27 770.37L1863.27 710.37z" stroke="rgba(9, 48, 9, 0.19)" stroke-width="2"></path><path d="M90.52 590.37 a6 6 0 1 0 12 0 a6 6 0 1 0 -12 0zM142.49 620.37 a6 6 0 1 0 12 0 a6 6 0 1 0 -12 0zM142.49 680.37 a6 6 0 1 0 12 0 a6 6 0 1 0 -12 0zM90.52 710.37 a6 6 0 1 0 12 0 a6 6 0 1 0 -12 0zM38.56 680.37 a6 6 0 1 0 12 0 a6 6 0 1 0 -12 0zM38.56 620.37 a6 6 0 1 0 12 0 a6 6 0 1 0 -12 0zM142.49 -39.63 a6 6 0 1 0 12 0 a6 6 0 1 0 -12 0zM194.45 -9.63 a6 6 0 1 0 12 0 a6 6 0 1 0 -12 0zM194.45 50.37 a6 6 0 1 0 12 0 a6 6 0 1 0 -12 0zM142.49 80.37 a6 6 0 1 0 12 0 a6 6 0 1 0 -12 0zM90.52 50.37 a6 6 0 1 0 12 0 a6 6 0 1 0 -12 0zM90.52 -9.63 a6 6 0 1 0 12 0 a6 6 0 1 0 -12 0zM194.45 230.37 a6 6 0 1 0 12 0 a6 6 0 1 0 -12 0zM246.41 260.37 a6 6 0 1 0 12 0 a6 6 0 1 0 -12 0zM246.41 320.37 a6 6 0 1 0 12 0 a6 6 0 1 0 -12 0zM194.45 350.37 a6 6 0 1 0 12 0 a6 6 0 1 0 -12 0zM142.49 320.37 a6 6 0 1 0 12 0 a6 6 0 1 0 -12 0zM142.49 260.37 a6 6 0 1 0 12 0 a6 6 0 1 0 -12 0zM142.49 500.37 a6 6 0 1 0 12 0 a6 6 0 1 0 -12 0zM194.45 530.37 a6 6 0 1 0 12 0 a6 6 0 1 0 -12 0zM194.45 590.37 a6 6 0 1 0 12 0 a6 6 0 1 0 -12 0zM90.52 530.37 a6 6 0 1 0 12 0 a6 6 0 1 0 -12 0zM246.41 620.37 a6 6 0 1 0 12 0 a6 6 0 1 0 -12 0zM246.41 680.37 a6 6 0 1 0 12 0 a6 6 0 1 0 -12 0zM194.45 710.37 a6 6 0 1 0 12 0 a6 6 0 1 0 -12 0zM194.45 770.37 a6 6 0 1 0 12 0 a6 6 0 1 0 -12 0zM142.49 800.37 a6 6 0 1 0 12 0 a6 6 0 1 0 -12 0zM90.52 770.37 a6 6 0 1 0 12 0 a6 6 0 1 0 -12 0zM142.49 860.37 a6 6 0 1 0 12 0 a6 6 0 1 0 -12 0zM194.45 890.37 a6 6 0 1 0 12 0 a6 6 0 1 0 -12 0zM194.45 950.37 a6 6 0 1 0 12 0 a6 6 0 1 0 -12 0zM142.49 980.37 a6 6 0 1 0 12 0 a6 6 0 1 0 -12 0zM90.52 950.37 a6 6 0 1 0 12 0 a6 6 0 1 0 -12 0zM90.52 890.37 a6 6 0 1 0 12 0 a6 6 0 1 0 -12 0zM246.41 980.37 a6 6 0 1 0 12 0 a6 6 0 1 0 -12 0zM246.41 1040.37 a6 6 0 1 0 12 0 a6 6 0 1 0 -12 0zM194.45 1070.37 a6 6 0 1 0 12 0 a6 6 0 1 0 -12 0zM142.49 1040.37 a6 6 0 1 0 12 0 a6 6 0 1 0 -12 0zM246.41 140.37 a6 6 0 1 0 12 0 a6 6 0 1 0 -12 0zM298.38 170.37 a6 6 0 1 0 12 0 a6 6 0 1 0 -12 0zM298.38 230.37 a6 6 0 1 0 12 0 a6 6 0 1 0 -12 0zM194.45 170.37 a6 6 0 1 0 12 0 a6 6 0 1 0 -12 0zM402.3 770.37 a6 6 0 1 0 12 0 a6 6 0 1 0 -12 0zM454.26 800.37 a6 6 0 1 0 12 0 a6 6 0 1 0 -12 0zM454.26 860.37 a6 6 0 1 0 12 0 a6 6 0 1 0 -12 0zM402.3 890.37 a6 6 0 1 0 12 0 a6 6 0 1 0 -12 0zM350.34 860.37 a6 6 0 1 0 12 0 a6 6 0 1 0 -12 0zM350.34 800.37 a6 6 0 1 0 12 0 a6 6 0 1 0 -12 0zM506.23 590.37 a6 6 0 1 0 12 0 a6 6 0 1 0 -12 0zM558.19 620.37 a6 6 0 1 0 12 0 a6 6 0 1 0 -12 0zM558.19 680.37 a6 6 0 1 0 12 0 a6 6 0 1 0 -12 0zM506.23 710.37 a6 6 0 1 0 12 0 a6 6 0 1 0 -12 0zM454.26 680.37 a6 6 0 1 0 12 0 a6 6 0 1 0 -12 0zM454.26 620.37 a6 6 0 1 0 12 0 a6 6 0 1 0 -12 0zM506.23 770.37 a6 6 0 1 0 12 0 a6 6 0 1 0 -12 0zM558.19 800.37 a6 6 0 1 0 12 0 a6 6 0 1 0 -12 0zM558.19 860.37 a6 6 0 1 0 12 0 a6 6 0 1 0 -12 0zM506.23 890.37 a6 6 0 1 0 12 0 a6 6 0 1 0 -12 0zM454.26 1040.37 a6 6 0 1 0 12 0 a6 6 0 1 0 -12 0zM506.23 1070.37 a6 6 0 1 0 12 0 a6 6 0 1 0 -12 0zM506.23 1130.37 a6 6 0 1 0 12 0 a6 6 0 1 0 -12 0zM454.26 1160.37 a6 6 0 1 0 12 0 a6 6 0 1 0 -12 0zM402.3 1130.37 a6 6 0 1 0 12 0 a6 6 0 1 0 -12 0zM402.3 1070.37 a6 6 0 1 0 12 0 a6 6 0 1 0 -12 0zM610.15 890.37 a6 6 0 1 0 12 0 a6 6 0 1 0 -12 0zM610.15 950.37 a6 6 0 1 0 12 0 a6 6 0 1 0 -12 0zM558.19 980.37 a6 6 0 1 0 12 0 a6 6 0 1 0 -12 0zM506.23 950.37 a6 6 0 1 0 12 0 a6 6 0 1 0 -12 0zM662.12 140.37 a6 6 0 1 0 12 0 a6 6 0 1 0 -12 0zM714.08 170.37 a6 6 0 1 0 12 0 a6 6 0 1 0 -12 0zM714.08 230.37 a6 6 0 1 0 12 0 a6 6 0 1 0 -12 0zM662.12 260.37 a6 6 0 1 0 12 0 a6 6 0 1 0 -12 0zM610.15 230.37 a6 6 0 1 0 12 0 a6 6 0 1 0 -12 0zM610.15 170.37 a6 6 0 1 0 12 0 a6 6 0 1 0 -12 0zM662.12 680.37 a6 6 0 1 0 12 0 a6 6 0 1 0 -12 0zM714.08 710.37 a6 6 0 1 0 12 0 a6 6 0 1 0 -12 0zM714.08 770.37 a6 6 0 1 0 12 0 a6 6 0 1 0 -12 0zM662.12 800.37 a6 6 0 1 0 12 0 a6 6 0 1 0 -12 0zM610.15 770.37 a6 6 0 1 0 12 0 a6 6 0 1 0 -12 0zM610.15 710.37 a6 6 0 1 0 12 0 a6 6 0 1 0 -12 0zM766.04 -39.63 a6 6 0 1 0 12 0 a6 6 0 1 0 -12 0zM818 -9.63 a6 6 0 1 0 12 0 a6 6 0 1 0 -12 0zM818 50.37 a6 6 0 1 0 12 0 a6 6 0 1 0 -12 0zM766.04 80.37 a6 6 0 1 0 12 0 a6 6 0 1 0 -12 0zM714.08 50.37 a6 6 0 1 0 12 0 a6 6 0 1 0 -12 0zM714.08 -9.63 a6 6 0 1 0 12 0 a6 6 0 1 0 -12 0zM766.04 140.37 a6 6 0 1 0 12 0 a6 6 0 1 0 -12 0zM818 170.37 a6 6 0 1 0 12 0 a6 6 0 1 0 -12 0zM818 230.37 a6 6 0 1 0 12 0 a6 6 0 1 0 -12 0zM766.04 260.37 a6 6 0 1 0 12 0 a6 6 0 1 0 -12 0zM818 770.37 a6 6 0 1 0 12 0 a6 6 0 1 0 -12 0zM869.97 800.37 a6 6 0 1 0 12 0 a6 6 0 1 0 -12 0zM869.97 860.37 a6 6 0 1 0 12 0 a6 6 0 1 0 -12 0zM818 890.37 a6 6 0 1 0 12 0 a6 6 0 1 0 -12 0zM766.04 860.37 a6 6 0 1 0 12 0 a6 6 0 1 0 -12 0zM766.04 800.37 a6 6 0 1 0 12 0 a6 6 0 1 0 -12 0zM818 950.37 a6 6 0 1 0 12 0 a6 6 0 1 0 -12 0zM766.04 980.37 a6 6 0 1 0 12 0 a6 6 0 1 0 -12 0zM714.08 950.37 a6 6 0 1 0 12 0 a6 6 0 1 0 -12 0zM714.08 890.37 a6 6 0 1 0 12 0 a6 6 0 1 0 -12 0zM869.97 680.37 a6 6 0 1 0 12 0 a6 6 0 1 0 -12 0zM921.93 710.37 a6 6 0 1 0 12 0 a6 6 0 1 0 -12 0zM921.93 770.37 a6 6 0 1 0 12 0 a6 6 0 1 0 -12 0zM818.01 770.37 a6 6 0 1 0 12 0 a6 6 0 1 0 -12 0zM818.01 710.37 a6 6 0 1 0 12 0 a6 6 0 1 0 -12 0zM973.89 -39.63 a6 6 0 1 0 12 0 a6 6 0 1 0 -12 0zM1025.86 -9.63 a6 6 0 1 0 12 0 a6 6 0 1 0 -12 0zM1025.86 50.37 a6 6 0 1 0 12 0 a6 6 0 1 0 -12 0zM973.89 80.37 a6 6 0 1 0 12 0 a6 6 0 1 0 -12 0zM921.93 50.37 a6 6 0 1 0 12 0 a6 6 0 1 0 -12 0zM921.93 -9.63 a6 6 0 1 0 12 0 a6 6 0 1 0 -12 0zM1025.86 410.37 a6 6 0 1 0 12 0 a6 6 0 1 0 -12 0zM1077.82 440.37 a6 6 0 1 0 12 0 a6 6 0 1 0 -12 0zM1077.82 500.37 a6 6 0 1 0 12 0 a6 6 0 1 0 -12 0zM1025.86 530.37 a6 6 0 1 0 12 0 a6 6 0 1 0 -12 0zM973.89 500.37 a6 6 0 1 0 12 0 a6 6 0 1 0 -12 0zM973.89 440.37 a6 6 0 1 0 12 0 a6 6 0 1 0 -12 0zM1025.86 590.37 a6 6 0 1 0 12 0 a6 6 0 1 0 -12 0zM973.89 620.37 a6 6 0 1 0 12 0 a6 6 0 1 0 -12 0zM921.93 590.37 a6 6 0 1 0 12 0 a6 6 0 1 0 -12 0zM921.93 530.37 a6 6 0 1 0 12 0 a6 6 0 1 0 -12 0zM1077.82 620.37 a6 6 0 1 0 12 0 a6 6 0 1 0 -12 0zM1077.82 680.37 a6 6 0 1 0 12 0 a6 6 0 1 0 -12 0zM1025.86 710.37 a6 6 0 1 0 12 0 a6 6 0 1 0 -12 0zM973.89 680.37 a6 6 0 1 0 12 0 a6 6 0 1 0 -12 0zM1025.86 950.37 a6 6 0 1 0 12 0 a6 6 0 1 0 -12 0zM1077.82 980.37 a6 6 0 1 0 12 0 a6 6 0 1 0 -12 0zM1077.82 1040.37 a6 6 0 1 0 12 0 a6 6 0 1 0 -12 0zM1025.86 1070.37 a6 6 0 1 0 12 0 a6 6 0 1 0 -12 0zM973.89 1040.37 a6 6 0 1 0 12 0 a6 6 0 1 0 -12 0zM973.89 980.37 a6 6 0 1 0 12 0 a6 6 0 1 0 -12 0zM1077.82 320.37 a6 6 0 1 0 12 0 a6 6 0 1 0 -12 0zM1129.78 350.37 a6 6 0 1 0 12 0 a6 6 0 1 0 -12 0zM1129.78 410.37 a6 6 0 1 0 12 0 a6 6 0 1 0 -12 0zM1025.86 350.37 a6 6 0 1 0 12 0 a6 6 0 1 0 -12 0zM1181.75 440.37 a6 6 0 1 0 12 0 a6 6 0 1 0 -12 0zM1181.75 500.37 a6 6 0 1 0 12 0 a6 6 0 1 0 -12 0zM1129.78 530.37 a6 6 0 1 0 12 0 a6 6 0 1 0 -12 0zM1181.75 140.37 a6 6 0 1 0 12 0 a6 6 0 1 0 -12 0zM1233.71 170.37 a6 6 0 1 0 12 0 a6 6 0 1 0 -12 0zM1233.71 230.37 a6 6 0 1 0 12 0 a6 6 0 1 0 -12 0zM1181.75 260.37 a6 6 0 1 0 12 0 a6 6 0 1 0 -12 0zM1129.78 230.37 a6 6 0 1 0 12 0 a6 6 0 1 0 -12 0zM1129.78 170.37 a6 6 0 1 0 12 0 a6 6 0 1 0 -12 0zM1285.67 140.37 a6 6 0 1 0 12 0 a6 6 0 1 0 -12 0zM1337.63 170.37 a6 6 0 1 0 12 0 a6 6 0 1 0 -12 0zM1337.63 230.37 a6 6 0 1 0 12 0 a6 6 0 1 0 -12 0zM1285.67 260.37 a6 6 0 1 0 12 0 a6 6 0 1 0 -12 0zM1389.6 260.37 a6 6 0 1 0 12 0 a6 6 0 1 0 -12 0zM1389.6 320.37 a6 6 0 1 0 12 0 a6 6 0 1 0 -12 0zM1337.63 350.37 a6 6 0 1 0 12 0 a6 6 0 1 0 -12 0zM1285.67 320.37 a6 6 0 1 0 12 0 a6 6 0 1 0 -12 0zM1337.63 590.37 a6 6 0 1 0 12 0 a6 6 0 1 0 -12 0zM1389.6 620.37 a6 6 0 1 0 12 0 a6 6 0 1 0 -12 0zM1389.6 680.37 a6 6 0 1 0 12 0 a6 6 0 1 0 -12 0zM1337.63 710.37 a6 6 0 1 0 12 0 a6 6 0 1 0 -12 0zM1285.67 680.37 a6 6 0 1 0 12 0 a6 6 0 1 0 -12 0zM1285.67 620.37 a6 6 0 1 0 12 0 a6 6 0 1 0 -12 0zM1441.56 230.37 a6 6 0 1 0 12 0 a6 6 0 1 0 -12 0zM1493.52 260.37 a6 6 0 1 0 12 0 a6 6 0 1 0 -12 0zM1493.52 320.37 a6 6 0 1 0 12 0 a6 6 0 1 0 -12 0zM1441.56 350.37 a6 6 0 1 0 12 0 a6 6 0 1 0 -12 0zM1441.56 410.37 a6 6 0 1 0 12 0 a6 6 0 1 0 -12 0zM1493.52 440.37 a6 6 0 1 0 12 0 a6 6 0 1 0 -12 0zM1493.52 500.37 a6 6 0 1 0 12 0 a6 6 0 1 0 -12 0zM1441.56 530.37 a6 6 0 1 0 12 0 a6 6 0 1 0 -12 0zM1389.6 500.37 a6 6 0 1 0 12 0 a6 6 0 1 0 -12 0zM1389.6 440.37 a6 6 0 1 0 12 0 a6 6 0 1 0 -12 0zM1493.52 140.37 a6 6 0 1 0 12 0 a6 6 0 1 0 -12 0zM1545.49 170.37 a6 6 0 1 0 12 0 a6 6 0 1 0 -12 0zM1545.49 230.37 a6 6 0 1 0 12 0 a6 6 0 1 0 -12 0zM1441.56 170.37 a6 6 0 1 0 12 0 a6 6 0 1 0 -12 0zM1597.45 260.37 a6 6 0 1 0 12 0 a6 6 0 1 0 -12 0zM1597.45 320.37 a6 6 0 1 0 12 0 a6 6 0 1 0 -12 0zM1545.49 350.37 a6 6 0 1 0 12 0 a6 6 0 1 0 -12 0zM1545.49 410.37 a6 6 0 1 0 12 0 a6 6 0 1 0 -12 0zM1597.45 440.37 a6 6 0 1 0 12 0 a6 6 0 1 0 -12 0zM1597.45 500.37 a6 6 0 1 0 12 0 a6 6 0 1 0 -12 0zM1545.49 530.37 a6 6 0 1 0 12 0 a6 6 0 1 0 -12 0zM1493.52 860.37 a6 6 0 1 0 12 0 a6 6 0 1 0 -12 0zM1545.49 890.37 a6 6 0 1 0 12 0 a6 6 0 1 0 -12 0zM1545.49 950.37 a6 6 0 1 0 12 0 a6 6 0 1 0 -12 0zM1493.52 980.37 a6 6 0 1 0 12 0 a6 6 0 1 0 -12 0zM1441.56 950.37 a6 6 0 1 0 12 0 a6 6 0 1 0 -12 0zM1441.56 890.37 a6 6 0 1 0 12 0 a6 6 0 1 0 -12 0zM1753.34 50.37 a6 6 0 1 0 12 0 a6 6 0 1 0 -12 0zM1805.3 80.37 a6 6 0 1 0 12 0 a6 6 0 1 0 -12 0zM1805.3 140.37 a6 6 0 1 0 12 0 a6 6 0 1 0 -12 0zM1753.34 170.37 a6 6 0 1 0 12 0 a6 6 0 1 0 -12 0zM1701.38 140.37 a6 6 0 1 0 12 0 a6 6 0 1 0 -12 0zM1701.38 80.37 a6 6 0 1 0 12 0 a6 6 0 1 0 -12 0zM1753.34 770.37 a6 6 0 1 0 12 0 a6 6 0 1 0 -12 0zM1805.3 800.37 a6 6 0 1 0 12 0 a6 6 0 1 0 -12 0zM1805.3 860.37 a6 6 0 1 0 12 0 a6 6 0 1 0 -12 0zM1753.34 890.37 a6 6 0 1 0 12 0 a6 6 0 1 0 -12 0zM1701.38 860.37 a6 6 0 1 0 12 0 a6 6 0 1 0 -12 0zM1701.38 800.37 a6 6 0 1 0 12 0 a6 6 0 1 0 -12 0zM1857.26 770.37 a6 6 0 1 0 12 0 a6 6 0 1 0 -12 0zM1909.23 800.37 a6 6 0 1 0 12 0 a6 6 0 1 0 -12 0zM1909.23 860.37 a6 6 0 1 0 12 0 a6 6 0 1 0 -12 0zM1857.26 890.37 a6 6 0 1 0 12 0 a6 6 0 1 0 -12 0zM1961.19 410.37 a6 6 0 1 0 12 0 a6 6 0 1 0 -12 0zM2013.15 440.37 a6 6 0 1 0 12 0 a6 6 0 1 0 -12 0zM2013.15 500.37 a6 6 0 1 0 12 0 a6 6 0 1 0 -12 0zM1961.19 530.37 a6 6 0 1 0 12 0 a6 6 0 1 0 -12 0zM1909.23 500.37 a6 6 0 1 0 12 0 a6 6 0 1 0 -12 0zM1909.23 440.37 a6 6 0 1 0 12 0 a6 6 0 1 0 -12 0zM1961.19 590.37 a6 6 0 1 0 12 0 a6 6 0 1 0 -12 0zM2013.15 620.37 a6 6 0 1 0 12 0 a6 6 0 1 0 -12 0zM2013.15 680.37 a6 6 0 1 0 12 0 a6 6 0 1 0 -12 0zM1961.19 710.37 a6 6 0 1 0 12 0 a6 6 0 1 0 -12 0zM1909.23 680.37 a6 6 0 1 0 12 0 a6 6 0 1 0 -12 0zM1909.23 620.37 a6 6 0 1 0 12 0 a6 6 0 1 0 -12 0zM1961.19 770.37 a6 6 0 1 0 12 0 a6 6 0 1 0 -12 0zM1857.27 770.37 a6 6 0 1 0 12 0 a6 6 0 1 0 -12 0zM1857.27 710.37 a6 6 0 1 0 12 0 a6 6 0 1 0 -12 0z" fill="rgba(9, 48, 9, 0.19)"></path><path d="M128.36 -150.97L279.92 -63.47L279.92 111.53L128.36 199.03L-23.2 111.53L-23.2 -63.47zM279.92 111.53L431.48 199.03L431.48 374.03L279.92 461.53L128.36 374.03L128.36 199.03zM128.36 374.03L279.92 461.53L279.92 636.53L128.36 724.03L-23.2 636.53L-23.2 461.53zM431.48 374.03L583.04 461.53L583.04 636.53L431.48 724.03L279.92 636.53L279.92 461.53zM431.48 899.03L583.04 986.53L583.04 1161.53L431.48 1249.03L279.92 1161.53L279.92 986.53zM734.6 899.03L886.15 986.53L886.15 1161.53L734.6 1249.03L583.04 1161.53L583.04 986.53zM1189.27 636.53L1340.83 724.03L1340.83 899.03L1189.27 986.53L1037.71 899.03L1037.71 724.03zM1340.83 -150.97L1492.39 -63.47L1492.39 111.53L1340.83 199.03L1189.27 111.53L1189.27 -63.47zM1643.95 -150.97L1795.51 -63.47L1795.51 111.53L1643.95 199.03L1492.39 111.53L1492.39 -63.47zM1795.51 636.53L1947.07 724.03L1947.07 899.03L1795.51 986.53L1643.95 899.03L1643.95 724.03zM1643.95 899.03L1795.51 986.53L1795.51 1161.53L1643.95 1249.03L1492.39 1161.53L1492.39 986.53zM1947.07 -150.97L2098.62 -63.47L2098.62 111.53L1947.07 199.03L1795.51 111.53L1795.51 -63.47zM1947.07 899.03L2098.62 986.53L2098.62 1161.53L1947.07 1249.03L1795.51 1161.53L1795.51 986.53z" stroke="rgba(9, 48, 9, 0.56)" stroke-width="2"></path></g><defs><mask id="SvgjsMask4156"><rect width="1920" height="1080" fill="#ffffff"></rect></mask><linearGradient x1="10.94%" y1="119.44%" x2="89.06%" y2="-19.44%" gradientUnits="userSpaceOnUse" id="SvgjsLinearGradient4157"><stop stop-color="rgba(3, 22, 2, 1)" offset="0"></stop><stop stop-color="rgba(13, 30, 9, 1)" offset="1"></stop></linearGradient></defs></svg>